<svg width="2048" height="1080" viewBox="0 0 2048 1080" fill="none" xmlns="http://www.w3.org/2000/svg">
<g clip-path="url(#clip0_102_1202)">
<rect width="2048" height="1080" fill="#404040" fill-opacity="0.5"/>
<g clip-path="url(#clip1_102_1202)">
<rect x="-95.005" y="230.772" width="94" height="94" rx="30" transform="rotate(-6.90261 -95.005 230.772)" fill="#FF335F"/>
</g>
<g clip-path="url(#clip2_102_1202)">
<path d="M1054.62 -19.6941L1082.56 -7.78006C1087.82 -5.5376 1091.48 -0.660358 1092.17 5.01446L1095.82 35.1644C1096.5 40.8392 1094.11 46.4495 1089.54 49.8819L1065.25 68.1178C1060.68 71.5501 1054.63 72.2832 1049.37 70.0407L1021.43 58.1266C1016.18 55.8842 1012.51 51.007 1011.83 45.3321L1008.18 15.1822C1007.49 9.50735 1009.88 3.8971 1014.45 0.464738L1038.74 -17.7712C1043.31 -21.2035 1049.37 -21.9366 1054.62 -19.6941Z" stroke="#F6E2A1" stroke-width="2"/>
<path d="M1068.32 93.4796L1096.26 105.394C1101.52 107.636 1105.18 112.513 1105.87 118.188L1109.52 148.338C1110.2 154.013 1107.81 159.623 1103.24 163.056L1078.96 181.291C1074.38 184.724 1068.33 185.457 1063.07 183.214L1035.14 171.3C1029.88 169.058 1026.22 164.181 1025.53 158.506L1021.88 128.356C1021.19 122.681 1023.58 117.071 1028.16 113.638L1052.44 95.4025C1057.01 91.9702 1063.07 91.2372 1068.32 93.4796Z" stroke="#F6E2A1" stroke-width="2"/>
<rect x="1109.6" y="-29.8887" width="94" height="94" rx="17" transform="rotate(-6.90261 1109.6 -29.8887)" fill="#16615D"/>
<rect x="1124.76" y="84.4889" width="92" height="92" rx="16" transform="rotate(-6.90261 1124.76 84.4889)" stroke="#16615D" stroke-width="2"/>
<rect x="1237.27" y="69.488" width="94" height="94" rx="30" transform="rotate(-6.90261 1237.27 69.488)" fill="#FF335F"/>
<rect x="1225.02" y="-42.4819" width="92" height="92" rx="29" transform="rotate(-6.90261 1225.02 -42.4819)" stroke="#FF335F" stroke-width="2"/>
</g>
<g clip-path="url(#clip3_102_1202)">
<path d="M357.959 -51.4338C362.816 -55.0806 369.249 -55.8595 374.836 -53.4769L402.772 -41.5628C408.358 -39.1802 412.249 -33.9981 412.979 -27.9686L416.629 2.18133C417.359 8.21082 414.817 14.1717 409.96 17.8186L385.675 36.0545C380.818 39.7014 374.385 40.4802 368.798 38.0976L340.862 26.1836C335.276 23.801 331.384 18.6189 330.654 12.5894L327.005 -17.5606C326.275 -23.5901 328.817 -29.551 333.674 -33.1978L357.959 -51.4338Z" fill="#F6E2A1"/>
<path d="M388.488 60.948L416.423 72.862C421.681 75.1045 425.343 79.9817 426.03 85.6565L429.68 115.807C430.367 121.481 427.975 127.092 423.404 130.524L399.118 148.76C394.547 152.192 388.492 152.925 383.234 150.683L355.298 138.769C350.04 136.526 346.378 131.649 345.691 125.974L342.041 95.8243C341.354 90.1494 343.747 84.5392 348.318 81.1068L372.604 62.8709C377.175 59.4385 383.23 58.7055 388.488 60.948Z" stroke="#F6E2A1" stroke-width="2"/>
<path d="M402.188 174.122L430.124 186.036C435.382 188.278 439.044 193.155 439.731 198.83L443.381 228.98C444.068 234.655 441.675 240.265 437.104 243.698L412.819 261.934C408.248 265.366 402.193 266.099 396.935 263.856L368.999 251.942C363.741 249.7 360.079 244.823 359.392 239.148L355.742 208.998C355.055 203.323 357.448 197.713 362.019 194.281L386.304 176.045C390.875 172.612 396.93 171.879 402.188 174.122Z" stroke="#F6E2A1" stroke-width="2"/>
<rect x="443.462" y="50.7534" width="94" height="94" rx="17" transform="rotate(-6.90261 443.462 50.7534)" fill="#16615D"/>
<rect x="430.874" y="-61.5477" width="92" height="92" rx="16" transform="rotate(-6.90261 430.874 -61.5477)" stroke="#16615D" stroke-width="2"/>
<rect x="458.619" y="165.131" width="92" height="92" rx="16" transform="rotate(-6.90261 458.619 165.131)" stroke="#16615D" stroke-width="2"/>
<rect x="571.132" y="150.13" width="94" height="94" rx="30" transform="rotate(-6.90261 571.132 150.13)" fill="#FF335F"/>
<rect x="558.887" y="38.1602" width="92" height="92" rx="29" transform="rotate(-6.90261 558.887 38.1602)" stroke="#FF335F" stroke-width="2"/>
<rect x="544.843" y="-75.3447" width="92" height="92" rx="29" transform="rotate(-6.90261 544.843 -75.3447)" stroke="#FF335F" stroke-width="2"/>
</g>
<g clip-path="url(#clip4_102_1202)">
<path d="M1720.25 -96.2451L1748.18 -84.3311C1753.44 -82.0886 1757.1 -77.2114 1757.79 -71.5366L1761.44 -41.3866C1762.13 -35.7118 1759.74 -30.1015 1755.16 -26.6692L1730.88 -8.43325C1726.31 -5.00089 1720.25 -4.26788 1714.99 -6.51033L1687.06 -18.4244C1681.8 -20.6668 1678.14 -25.5441 1677.45 -31.2189L1673.8 -61.3689C1673.12 -67.0437 1675.51 -72.6539 1680.08 -76.0863L1704.36 -94.3222C1708.94 -97.7546 1714.99 -98.4876 1720.25 -96.2451Z" stroke="#F6E2A1" stroke-width="2"/>
<path d="M1733.95 16.9286L1761.88 28.8426C1767.14 31.0851 1770.81 35.9623 1771.49 41.6371L1775.14 71.7871C1775.83 77.4619 1773.44 83.0722 1768.87 86.5045L1744.58 104.74C1740.01 108.173 1733.95 108.906 1728.7 106.663L1700.76 94.7493C1695.5 92.5069 1691.84 87.6296 1691.15 81.9548L1687.5 51.8049C1686.82 46.13 1689.21 40.5198 1693.78 37.0874L1718.07 18.8515C1722.64 15.4191 1728.69 14.6861 1733.95 16.9286Z" stroke="#F6E2A1" stroke-width="2"/>
<rect x="1790.38" y="7.93788" width="92" height="92" rx="16" transform="rotate(-6.90261 1790.38 7.93788)" stroke="#16615D" stroke-width="2"/>
<rect x="1902.89" y="-7.06299" width="94" height="94" rx="30" transform="rotate(-6.90261 1902.89 -7.06299)" fill="#FF335F"/>
</g>
<g clip-path="url(#clip5_102_1202)">
<path d="M24.3945 -11.0525C29.2513 -14.6994 35.6847 -15.4782 41.2713 -13.0956L69.2069 -1.18159C74.7936 1.20103 78.6847 6.3831 79.4147 12.4126L83.0646 42.5626C83.7945 48.592 81.2523 54.5529 76.3956 58.1998L52.1099 76.4357C47.2532 80.0826 40.8198 80.8615 35.2332 78.4788L7.29755 66.5648C1.71089 64.1822 -2.18029 59.0001 -2.91022 52.9706L-6.56016 22.8207C-7.29009 16.7912 -4.74787 10.8303 0.108861 7.18339L24.3945 -11.0525Z" fill="#F6E2A1"/>
<path d="M54.9228 101.329L82.8584 113.243C88.1165 115.486 91.7788 120.363 92.4657 126.038L96.1157 156.188C96.8027 161.863 94.41 167.473 89.839 170.905L65.5533 189.141C60.9823 192.573 54.9273 193.306 49.6693 191.064L21.7337 179.15C16.4756 176.908 12.8133 172.03 12.1264 166.355L8.47642 136.205C7.78943 130.531 10.1821 124.92 14.7531 121.488L39.0388 103.252C43.6098 99.8198 49.6648 99.0868 54.9228 101.329Z" stroke="#F6E2A1" stroke-width="2"/>
<path d="M68.6236 214.503L96.5592 226.417C101.817 228.659 105.48 233.537 106.167 239.211L109.816 269.361C110.503 275.036 108.111 280.647 103.54 284.079L79.2541 302.315C74.6831 305.747 68.6281 306.48 63.3701 304.238L35.4345 292.324C30.1764 290.081 26.5142 285.204 25.8272 279.529L22.1772 249.379C21.4902 243.704 23.8829 238.094 28.4539 234.662L52.7396 216.426C57.3107 212.993 63.3656 212.26 68.6236 214.503Z" stroke="#F6E2A1" stroke-width="2"/>
<rect x="109.401" y="91.1947" width="94" height="94" rx="17" transform="rotate(-6.90261 109.401 91.1947)" fill="#16615D"/>
<rect x="96.8131" y="-21.1064" width="92" height="92" rx="16" transform="rotate(-6.90261 96.8131 -21.1064)" stroke="#16615D" stroke-width="2"/>
<rect x="124.558" y="205.572" width="92" height="92" rx="16" transform="rotate(-6.90261 124.558 205.572)" stroke="#16615D" stroke-width="2"/>
<rect x="236.574" y="190.632" width="94" height="94" rx="30" transform="rotate(-6.90261 236.574 190.632)" fill="#FF335F"/>
<rect x="224.329" y="78.6616" width="92" height="92" rx="29" transform="rotate(-6.90261 224.329 78.6616)" stroke="#FF335F" stroke-width="2"/>
<rect x="210.286" y="-34.8433" width="92" height="92" rx="29" transform="rotate(-6.90261 210.286 -34.8433)" stroke="#FF335F" stroke-width="2"/>
</g>
<g clip-path="url(#clip6_102_1202)">
<path d="M1387.2 -59.9551L1415.13 -48.041C1420.39 -45.7986 1424.05 -40.9213 1424.74 -35.2465L1428.39 -5.09656C1429.08 0.578258 1426.68 6.18851 1422.11 9.62087L1397.83 27.8568C1393.26 31.2892 1387.2 32.0222 1381.94 29.7797L1354.01 17.8657C1348.75 15.6232 1345.09 10.746 1344.4 5.07115L1340.75 -25.0788C1340.06 -30.7536 1342.46 -36.3639 1347.03 -39.7962L1371.31 -58.0322C1375.88 -61.4645 1381.94 -62.1975 1387.2 -59.9551Z" stroke="#F6E2A1" stroke-width="2"/>
<path d="M1400.9 53.2186L1428.83 65.1327C1434.09 67.3751 1437.75 72.2524 1438.44 77.9272L1442.09 108.077C1442.78 113.752 1440.38 119.362 1435.81 122.795L1411.53 141.03C1406.96 144.463 1400.9 145.196 1395.64 142.953L1367.71 131.039C1362.45 128.797 1358.79 123.92 1358.1 118.245L1354.45 88.0949C1353.76 82.4201 1356.16 76.8098 1360.73 73.3775L1385.01 55.1415C1389.58 51.7092 1395.64 50.9762 1400.9 53.2186Z" stroke="#F6E2A1" stroke-width="2"/>
<rect x="1441.67" y="-70.0896" width="94" height="94" rx="17" transform="rotate(-6.90261 1441.67 -70.0896)" fill="#16615D"/>
<rect x="1456.83" y="44.288" width="92" height="92" rx="16" transform="rotate(-6.90261 1456.83 44.288)" stroke="#16615D" stroke-width="2"/>
<rect x="1568.85" y="29.3473" width="94" height="94" rx="30" transform="rotate(-6.90261 1568.85 29.3473)" fill="#FF335F"/>
<rect x="1556.6" y="-82.6227" width="92" height="92" rx="29" transform="rotate(-6.90261 1556.6 -82.6227)" stroke="#FF335F" stroke-width="2"/>
</g>
<g clip-path="url(#clip7_102_1202)">
<path d="M690.531 -91.6947C695.388 -95.3416 701.821 -96.1204 707.408 -93.7378L735.344 -81.8238C740.93 -79.4412 744.821 -74.2591 745.551 -68.2296L749.201 -38.0797C749.931 -32.0502 747.389 -26.0893 742.532 -22.4424L718.247 -4.20647C713.39 -0.559586 706.956 0.219245 701.37 -2.16337L673.434 -14.0774C667.847 -16.46 663.956 -21.6421 663.226 -27.6716L659.576 -57.8215C658.847 -63.851 661.389 -69.8119 666.245 -73.4588L690.531 -91.6947Z" fill="#F6E2A1"/>
<path d="M721.059 20.687L748.995 32.601C754.253 34.8435 757.915 39.7207 758.602 45.3956L762.252 75.5455C762.939 81.2203 760.547 86.8306 755.976 90.263L731.69 108.499C727.119 111.931 721.064 112.664 715.806 110.422L687.87 98.5077C682.612 96.2653 678.95 91.3881 678.263 85.7132L674.613 55.5633C673.926 49.8885 676.319 44.2782 680.89 40.8458L705.175 22.6099C709.746 19.1776 715.801 18.4445 721.059 20.687Z" stroke="#F6E2A1" stroke-width="2"/>
<path d="M734.76 133.861L762.696 145.775C767.954 148.017 771.616 152.894 772.303 158.569L775.953 188.719C776.64 194.394 774.247 200.004 769.676 203.437L745.391 221.673C740.82 225.105 734.765 225.838 729.507 223.596L701.571 211.681C696.313 209.439 692.651 204.562 691.964 198.887L688.314 168.737C687.627 163.062 690.019 157.452 694.59 154.02L718.876 135.784C723.447 132.351 729.502 131.618 734.76 133.861Z" stroke="#F6E2A1" stroke-width="2"/>
<rect x="775.538" y="10.5525" width="94" height="94" rx="17" transform="rotate(-6.90261 775.538 10.5525)" fill="#16615D"/>
<rect x="790.694" y="124.93" width="92" height="92" rx="16" transform="rotate(-6.90261 790.694 124.93)" stroke="#16615D" stroke-width="2"/>
<rect x="902.711" y="109.989" width="94" height="94" rx="30" transform="rotate(-6.90261 902.711 109.989)" fill="#FF335F"/>
<rect x="890.466" y="-1.98058" width="92" height="92" rx="29" transform="rotate(-6.90261 890.466 -1.98058)" stroke="#FF335F" stroke-width="2"/>
</g>
<g clip-path="url(#clip8_102_1202)">
<rect x="-95.005" y="230.772" width="94" height="94" rx="30" transform="rotate(-6.90261 -95.005 230.772)" fill="#FF335F"/>
</g>
<g clip-path="url(#clip9_102_1202)">
<path d="M1054.62 -19.6941L1082.56 -7.78006C1087.82 -5.5376 1091.48 -0.660358 1092.17 5.01446L1095.82 35.1644C1096.5 40.8392 1094.11 46.4495 1089.54 49.8819L1065.25 68.1178C1060.68 71.5501 1054.63 72.2832 1049.37 70.0407L1021.43 58.1266C1016.18 55.8842 1012.51 51.007 1011.83 45.3321L1008.18 15.1822C1007.49 9.50735 1009.88 3.8971 1014.45 0.464738L1038.74 -17.7712C1043.31 -21.2035 1049.37 -21.9366 1054.62 -19.6941Z" stroke="#F6E2A1" stroke-width="2"/>
<path d="M1068.32 93.4796L1096.26 105.394C1101.52 107.636 1105.18 112.513 1105.87 118.188L1109.52 148.338C1110.2 154.013 1107.81 159.623 1103.24 163.056L1078.96 181.291C1074.38 184.724 1068.33 185.457 1063.07 183.214L1035.14 171.3C1029.88 169.058 1026.22 164.181 1025.53 158.506L1021.88 128.356C1021.19 122.681 1023.58 117.071 1028.16 113.638L1052.44 95.4025C1057.01 91.9702 1063.07 91.2372 1068.32 93.4796Z" stroke="#F6E2A1" stroke-width="2"/>
<rect x="1109.6" y="-29.8887" width="94" height="94" rx="17" transform="rotate(-6.90261 1109.6 -29.8887)" fill="#16615D"/>
<rect x="1124.76" y="84.4889" width="92" height="92" rx="16" transform="rotate(-6.90261 1124.76 84.4889)" stroke="#16615D" stroke-width="2"/>
<rect x="1237.27" y="69.488" width="94" height="94" rx="30" transform="rotate(-6.90261 1237.27 69.488)" fill="#FF335F"/>
<rect x="1225.02" y="-42.4819" width="92" height="92" rx="29" transform="rotate(-6.90261 1225.02 -42.4819)" stroke="#FF335F" stroke-width="2"/>
</g>
<g clip-path="url(#clip10_102_1202)">
<path d="M357.959 -51.4338C362.816 -55.0806 369.249 -55.8595 374.836 -53.4769L402.772 -41.5628C408.358 -39.1802 412.249 -33.9981 412.979 -27.9686L416.629 2.18133C417.359 8.21082 414.817 14.1717 409.96 17.8186L385.675 36.0545C380.818 39.7014 374.385 40.4802 368.798 38.0976L340.862 26.1836C335.276 23.801 331.384 18.6189 330.654 12.5894L327.005 -17.5606C326.275 -23.5901 328.817 -29.551 333.674 -33.1978L357.959 -51.4338Z" fill="#F6E2A1"/>
<path d="M388.488 60.948L416.423 72.862C421.681 75.1045 425.343 79.9817 426.03 85.6565L429.68 115.807C430.367 121.481 427.975 127.092 423.404 130.524L399.118 148.76C394.547 152.192 388.492 152.925 383.234 150.683L355.298 138.769C350.04 136.526 346.378 131.649 345.691 125.974L342.041 95.8243C341.354 90.1494 343.747 84.5392 348.318 81.1068L372.604 62.8709C377.175 59.4385 383.23 58.7055 388.488 60.948Z" stroke="#F6E2A1" stroke-width="2"/>
<path d="M402.188 174.122L430.124 186.036C435.382 188.278 439.044 193.155 439.731 198.83L443.381 228.98C444.068 234.655 441.675 240.265 437.104 243.698L412.819 261.934C408.248 265.366 402.193 266.099 396.935 263.856L368.999 251.942C363.741 249.7 360.079 244.823 359.392 239.148L355.742 208.998C355.055 203.323 357.448 197.713 362.019 194.281L386.304 176.045C390.875 172.612 396.93 171.879 402.188 174.122Z" stroke="#F6E2A1" stroke-width="2"/>
<rect x="443.462" y="50.7534" width="94" height="94" rx="17" transform="rotate(-6.90261 443.462 50.7534)" fill="#16615D"/>
<rect x="430.874" y="-61.5477" width="92" height="92" rx="16" transform="rotate(-6.90261 430.874 -61.5477)" stroke="#16615D" stroke-width="2"/>
<rect x="458.619" y="165.131" width="92" height="92" rx="16" transform="rotate(-6.90261 458.619 165.131)" stroke="#16615D" stroke-width="2"/>
<rect x="571.132" y="150.13" width="94" height="94" rx="30" transform="rotate(-6.90261 571.132 150.13)" fill="#FF335F"/>
<rect x="558.887" y="38.1602" width="92" height="92" rx="29" transform="rotate(-6.90261 558.887 38.1602)" stroke="#FF335F" stroke-width="2"/>
<rect x="544.843" y="-75.3447" width="92" height="92" rx="29" transform="rotate(-6.90261 544.843 -75.3447)" stroke="#FF335F" stroke-width="2"/>
</g>
<g clip-path="url(#clip11_102_1202)">
<path d="M1387.2 -59.9551L1415.13 -48.041C1420.39 -45.7986 1424.05 -40.9213 1424.74 -35.2465L1428.39 -5.09656C1429.08 0.578258 1426.68 6.18851 1422.11 9.62087L1397.83 27.8568C1393.26 31.2892 1387.2 32.0222 1381.94 29.7797L1354.01 17.8657C1348.75 15.6232 1345.09 10.746 1344.4 5.07115L1340.75 -25.0788C1340.06 -30.7536 1342.46 -36.3639 1347.03 -39.7962L1371.31 -58.0322C1375.88 -61.4645 1381.94 -62.1975 1387.2 -59.9551Z" stroke="#F6E2A1" stroke-width="2"/>
<path d="M1400.9 53.2186L1428.83 65.1327C1434.09 67.3751 1437.75 72.2524 1438.44 77.9272L1442.09 108.077C1442.78 113.752 1440.38 119.362 1435.81 122.795L1411.53 141.03C1406.96 144.463 1400.9 145.196 1395.64 142.953L1367.71 131.039C1362.45 128.797 1358.79 123.92 1358.1 118.245L1354.45 88.0949C1353.76 82.4201 1356.16 76.8098 1360.73 73.3775L1385.01 55.1415C1389.58 51.7092 1395.64 50.9762 1400.9 53.2186Z" stroke="#F6E2A1" stroke-width="2"/>
<rect x="1441.67" y="-70.0896" width="94" height="94" rx="17" transform="rotate(-6.90261 1441.67 -70.0896)" fill="#16615D"/>
<rect x="1456.83" y="44.288" width="92" height="92" rx="16" transform="rotate(-6.90261 1456.83 44.288)" stroke="#16615D" stroke-width="2"/>
<rect x="1568.85" y="29.3473" width="94" height="94" rx="30" transform="rotate(-6.90261 1568.85 29.3473)" fill="#FF335F"/>
<rect x="1556.6" y="-82.6227" width="92" height="92" rx="29" transform="rotate(-6.90261 1556.6 -82.6227)" stroke="#FF335F" stroke-width="2"/>
</g>
<g clip-path="url(#clip12_102_1202)">
<path d="M690.531 -91.6947C695.388 -95.3416 701.821 -96.1204 707.408 -93.7378L735.344 -81.8238C740.93 -79.4412 744.821 -74.2591 745.551 -68.2296L749.201 -38.0797C749.931 -32.0502 747.389 -26.0893 742.532 -22.4424L718.247 -4.20647C713.39 -0.559586 706.956 0.219245 701.37 -2.16337L673.434 -14.0774C667.847 -16.46 663.956 -21.6421 663.226 -27.6716L659.576 -57.8215C658.847 -63.851 661.389 -69.8119 666.245 -73.4588L690.531 -91.6947Z" fill="#F6E2A1"/>
<path d="M721.059 20.687L748.995 32.601C754.253 34.8435 757.915 39.7207 758.602 45.3956L762.252 75.5455C762.939 81.2203 760.547 86.8306 755.976 90.263L731.69 108.499C727.119 111.931 721.064 112.664 715.806 110.422L687.87 98.5077C682.612 96.2653 678.95 91.3881 678.263 85.7132L674.613 55.5633C673.926 49.8885 676.319 44.2782 680.89 40.8458L705.175 22.6099C709.746 19.1776 715.801 18.4445 721.059 20.687Z" stroke="#F6E2A1" stroke-width="2"/>
<path d="M734.76 133.861L762.696 145.775C767.954 148.017 771.616 152.894 772.303 158.569L775.953 188.719C776.64 194.394 774.247 200.004 769.676 203.437L745.391 221.673C740.82 225.105 734.765 225.838 729.507 223.596L701.571 211.681C696.313 209.439 692.651 204.562 691.964 198.887L688.314 168.737C687.627 163.062 690.019 157.452 694.59 154.02L718.876 135.784C723.447 132.351 729.502 131.618 734.76 133.861Z" stroke="#F6E2A1" stroke-width="2"/>
<rect x="775.538" y="10.5525" width="94" height="94" rx="17" transform="rotate(-6.90261 775.538 10.5525)" fill="#16615D"/>
<rect x="790.694" y="124.93" width="92" height="92" rx="16" transform="rotate(-6.90261 790.694 124.93)" stroke="#16615D" stroke-width="2"/>
<rect x="902.711" y="109.989" width="94" height="94" rx="30" transform="rotate(-6.90261 902.711 109.989)" fill="#FF335F"/>
<rect x="890.466" y="-1.98058" width="92" height="92" rx="29" transform="rotate(-6.90261 890.466 -1.98058)" stroke="#FF335F" stroke-width="2"/>
</g>
<g clip-path="url(#clip13_102_1202)">
<rect x="-50.8043" y="570.926" width="94" height="94" rx="30" transform="rotate(-6.90261 -50.8043 570.926)" fill="#FF335F"/>
<rect x="-63.0491" y="458.956" width="92" height="92" rx="29" transform="rotate(-6.90261 -63.0491 458.956)" stroke="#FF335F" stroke-width="2"/>
<rect x="-77.0929" y="345.451" width="92" height="92" rx="29" transform="rotate(-6.90261 -77.0929 345.451)" stroke="#FF335F" stroke-width="2"/>
</g>
<g clip-path="url(#clip14_102_1202)">
<rect x="-9.58191" y="911.44" width="94" height="94" rx="30" transform="rotate(-6.90261 -9.58191 911.44)" fill="#FF335F"/>
<rect x="-21.8266" y="799.47" width="92" height="92" rx="29" transform="rotate(-6.90261 -21.8266 799.47)" stroke="#FF335F" stroke-width="2"/>
<rect x="-35.8705" y="685.965" width="92" height="92" rx="29" transform="rotate(-6.90261 -35.8705 685.965)" stroke="#FF335F" stroke-width="2"/>
</g>
<g clip-path="url(#clip15_102_1202)">
<path d="M1068.3 208.077C1073.15 204.431 1079.59 203.652 1085.17 206.034L1113.11 217.948C1118.7 220.331 1122.59 225.513 1123.32 231.543L1126.97 261.693C1127.7 267.722 1125.15 273.683 1120.3 277.33L1096.01 295.566C1091.16 299.213 1084.72 299.991 1079.14 297.609L1051.2 285.695C1045.61 283.312 1041.72 278.13 1040.99 272.101L1037.34 241.951C1036.61 235.921 1039.15 229.96 1044.01 226.313L1068.3 208.077Z" fill="#F6E2A1"/>
<path d="M1098.82 320.459L1126.76 332.373C1132.02 334.616 1135.68 339.493 1136.37 345.168L1140.02 375.318C1140.7 380.993 1138.31 386.603 1133.74 390.035L1109.46 408.271C1104.88 411.703 1098.83 412.436 1093.57 410.194L1065.64 398.28C1060.38 396.037 1056.72 391.16 1056.03 385.485L1052.38 355.335C1051.69 349.661 1054.08 344.05 1058.66 340.618L1082.94 322.382C1087.51 318.95 1093.57 318.217 1098.82 320.459Z" stroke="#F6E2A1" stroke-width="2"/>
<path d="M1112.53 433.633L1140.46 445.547C1145.72 447.789 1149.38 452.667 1150.07 458.341L1153.72 488.491C1154.41 494.166 1152.01 499.777 1147.44 503.209L1123.16 521.445C1118.58 524.877 1112.53 525.61 1107.27 523.368L1079.34 511.454C1074.08 509.211 1070.42 504.334 1069.73 498.659L1066.08 468.509C1065.39 462.834 1067.78 457.224 1072.36 453.792L1096.64 435.556C1101.21 432.123 1107.27 431.39 1112.53 433.633Z" stroke="#F6E2A1" stroke-width="2"/>
<rect x="1153.8" y="310.265" width="94" height="94" rx="17" transform="rotate(-6.90261 1153.8 310.265)" fill="#16615D"/>
<rect x="1141.21" y="197.964" width="92" height="92" rx="16" transform="rotate(-6.90261 1141.21 197.964)" stroke="#16615D" stroke-width="2"/>
<rect x="1168.96" y="424.642" width="92" height="92" rx="16" transform="rotate(-6.90261 1168.96 424.642)" stroke="#16615D" stroke-width="2"/>
<rect x="1281.47" y="409.641" width="94" height="94" rx="30" transform="rotate(-6.90261 1281.47 409.641)" fill="#FF335F"/>
<rect x="1269.22" y="297.671" width="92" height="92" rx="29" transform="rotate(-6.90261 1269.22 297.671)" stroke="#FF335F" stroke-width="2"/>
<rect x="1255.18" y="184.167" width="92" height="92" rx="29" transform="rotate(-6.90261 1255.18 184.167)" stroke="#FF335F" stroke-width="2"/>
</g>
<g clip-path="url(#clip16_102_1202)">
<path d="M1109.52 548.591C1114.38 544.944 1120.81 544.166 1126.4 546.548L1154.33 558.462C1159.92 560.845 1163.81 566.027 1164.54 572.056L1168.19 602.206C1168.92 608.236 1166.38 614.197 1161.52 617.844L1137.23 636.08C1132.38 639.726 1125.94 640.505 1120.36 638.123L1092.42 626.209C1086.84 623.826 1082.94 618.644 1082.21 612.614L1078.56 582.465C1077.83 576.435 1080.38 570.474 1085.23 566.827L1109.52 548.591Z" fill="#F6E2A1"/>
<path d="M1140.05 660.973L1167.98 672.887C1173.24 675.13 1176.9 680.007 1177.59 685.682L1181.24 715.832C1181.93 721.506 1179.53 727.117 1174.96 730.549L1150.68 748.785C1146.11 752.217 1140.05 752.95 1134.79 750.708L1106.86 738.794C1101.6 736.551 1097.94 731.674 1097.25 725.999L1093.6 695.849C1092.91 690.174 1095.31 684.564 1099.88 681.132L1124.16 662.896C1128.73 659.464 1134.79 658.731 1140.05 660.973Z" stroke="#F6E2A1" stroke-width="2"/>
<path d="M1153.75 774.147L1181.68 786.061C1186.94 788.303 1190.6 793.18 1191.29 798.855L1194.94 829.005C1195.63 834.68 1193.24 840.29 1188.66 843.723L1164.38 861.959C1159.81 865.391 1153.75 866.124 1148.49 863.882L1120.56 851.967C1115.3 849.725 1111.64 844.848 1110.95 839.173L1107.3 809.023C1106.61 803.348 1109.01 797.738 1113.58 794.306L1137.86 776.07C1142.43 772.637 1148.49 771.904 1153.75 774.147Z" stroke="#F6E2A1" stroke-width="2"/>
<rect x="1195.02" y="650.778" width="94" height="94" rx="17" transform="rotate(-6.90261 1195.02 650.778)" fill="#16615D"/>
<rect x="1182.43" y="538.477" width="92" height="92" rx="16" transform="rotate(-6.90261 1182.43 538.477)" stroke="#16615D" stroke-width="2"/>
<rect x="1210.18" y="765.156" width="92" height="92" rx="16" transform="rotate(-6.90261 1210.18 765.156)" stroke="#16615D" stroke-width="2"/>
<rect x="1322.69" y="750.155" width="94" height="94" rx="30" transform="rotate(-6.90261 1322.69 750.155)" fill="#FF335F"/>
<rect x="1310.45" y="638.185" width="92" height="92" rx="29" transform="rotate(-6.90261 1310.45 638.185)" stroke="#FF335F" stroke-width="2"/>
<rect x="1296.4" y="524.68" width="92" height="92" rx="29" transform="rotate(-6.90261 1296.4 524.68)" stroke="#FF335F" stroke-width="2"/>
</g>
<g clip-path="url(#clip17_102_1202)">
<path d="M402.16 288.72C407.017 285.073 413.45 284.294 419.037 286.677L446.972 298.591C452.559 300.973 456.45 306.155 457.18 312.185L460.83 342.335C461.56 348.364 459.018 354.325 454.161 357.972L429.875 376.208C425.019 379.855 418.585 380.634 412.999 378.251L385.063 366.337C379.476 363.954 375.585 358.772 374.855 352.743L371.205 322.593C370.475 316.563 373.018 310.602 377.874 306.956L402.16 288.72Z" fill="#F6E2A1"/>
<path d="M432.688 401.101L460.624 413.015C465.882 415.258 469.544 420.135 470.231 425.81L473.881 455.96C474.568 461.635 472.175 467.245 467.604 470.677L443.319 488.913C438.748 492.346 432.693 493.079 427.435 490.836L399.499 478.922C394.241 476.68 390.579 471.802 389.892 466.128L386.242 435.978C385.555 430.303 387.947 424.693 392.519 421.26L416.804 403.024C421.375 399.592 427.43 398.859 432.688 401.101Z" stroke="#F6E2A1" stroke-width="2"/>
<path d="M446.389 514.275L474.325 526.189C479.583 528.432 483.245 533.309 483.932 538.984L487.582 569.134C488.269 574.808 485.876 580.419 481.305 583.851L457.019 602.087C452.448 605.519 446.393 606.252 441.135 604.01L413.2 592.096C407.942 589.853 404.279 584.976 403.592 579.301L399.943 549.151C399.256 543.477 401.648 537.866 406.219 534.434L430.505 516.198C435.076 512.766 441.131 512.033 446.389 514.275Z" stroke="#F6E2A1" stroke-width="2"/>
<rect x="487.663" y="390.907" width="94" height="94" rx="17" transform="rotate(-6.90261 487.663 390.907)" fill="#16615D"/>
<rect x="475.075" y="278.606" width="92" height="92" rx="16" transform="rotate(-6.90261 475.075 278.606)" stroke="#16615D" stroke-width="2"/>
<rect x="502.82" y="505.284" width="92" height="92" rx="16" transform="rotate(-6.90261 502.82 505.284)" stroke="#16615D" stroke-width="2"/>
<rect x="615.332" y="490.284" width="94" height="94" rx="30" transform="rotate(-6.90261 615.332 490.284)" fill="#FF335F"/>
<rect x="603.087" y="378.314" width="92" height="92" rx="29" transform="rotate(-6.90261 603.087 378.314)" stroke="#FF335F" stroke-width="2"/>
<rect x="589.044" y="264.809" width="92" height="92" rx="29" transform="rotate(-6.90261 589.044 264.809)" stroke="#FF335F" stroke-width="2"/>
</g>
<g clip-path="url(#clip18_102_1202)">
<path d="M443.382 629.234C448.239 625.587 454.673 624.808 460.259 627.19L488.195 639.104C493.781 641.487 497.673 646.669 498.403 652.699L502.052 682.849C502.782 688.878 500.24 694.839 495.383 698.486L471.098 716.722C466.241 720.369 459.808 721.148 454.221 718.765L426.285 706.851C420.699 704.468 416.808 699.286 416.078 693.257L412.428 663.107C411.698 657.077 414.24 651.116 419.097 647.469L443.382 629.234Z" fill="#F6E2A1"/>
<path d="M473.911 741.615L501.846 753.529C507.104 755.772 510.767 760.649 511.454 766.324L515.104 796.474C515.791 802.149 513.398 807.759 508.827 811.191L484.541 829.427C479.97 832.859 473.915 833.593 468.657 831.35L440.722 819.436C435.463 817.194 431.801 812.316 431.114 806.641L427.464 776.492C426.777 770.817 429.17 765.206 433.741 761.774L458.027 743.538C462.598 740.106 468.653 739.373 473.911 741.615Z" stroke="#F6E2A1" stroke-width="2"/>
<path d="M487.611 854.789L515.547 866.703C520.805 868.945 524.467 873.823 525.154 879.498L528.804 909.647C529.491 915.322 527.099 920.933 522.528 924.365L498.242 942.601C493.671 946.033 487.616 946.766 482.358 944.524L454.422 932.61C449.164 930.367 445.502 925.49 444.815 919.815L441.165 889.665C440.478 883.99 442.871 878.38 447.442 874.948L471.727 856.712C476.298 853.28 482.353 852.547 487.611 854.789Z" stroke="#F6E2A1" stroke-width="2"/>
<rect x="528.885" y="731.421" width="94" height="94" rx="17" transform="rotate(-6.90261 528.885 731.421)" fill="#16615D"/>
<rect x="516.297" y="619.12" width="92" height="92" rx="16" transform="rotate(-6.90261 516.297 619.12)" stroke="#16615D" stroke-width="2"/>
<rect x="544.042" y="845.798" width="92" height="92" rx="16" transform="rotate(-6.90261 544.042 845.798)" stroke="#16615D" stroke-width="2"/>
<rect x="656.555" y="830.797" width="94" height="94" rx="30" transform="rotate(-6.90261 656.555 830.797)" fill="#FF335F"/>
<rect x="644.31" y="718.828" width="92" height="92" rx="29" transform="rotate(-6.90261 644.31 718.828)" stroke="#FF335F" stroke-width="2"/>
<rect x="630.266" y="605.323" width="92" height="92" rx="29" transform="rotate(-6.90261 630.266 605.323)" stroke="#FF335F" stroke-width="2"/>
</g>
<g clip-path="url(#clip19_102_1202)">
<path d="M1733.92 131.527C1738.78 127.88 1745.21 127.101 1750.8 129.483L1778.73 141.397C1784.32 143.78 1788.21 148.962 1788.94 154.992L1792.59 185.142C1793.32 191.171 1790.78 197.132 1785.92 200.779L1761.64 219.015C1756.78 222.662 1750.35 223.44 1744.76 221.058L1716.82 209.144C1711.24 206.761 1707.35 201.579 1706.62 195.55L1702.97 165.4C1702.24 159.37 1704.78 153.409 1709.64 149.762L1733.92 131.527Z" fill="#F6E2A1"/>
<path d="M1764.45 243.908L1792.38 255.822C1797.64 258.065 1801.31 262.942 1801.99 268.617L1805.64 298.767C1806.33 304.442 1803.94 310.052 1799.37 313.484L1775.08 331.72C1770.51 335.152 1764.45 335.885 1759.2 333.643L1731.26 321.729C1726 319.486 1722.34 314.609 1721.65 308.934L1718 278.784C1717.32 273.11 1719.71 267.499 1724.28 264.067L1748.57 245.831C1753.14 242.399 1759.19 241.666 1764.45 243.908Z" stroke="#F6E2A1" stroke-width="2"/>
<path d="M1778.15 357.082L1806.09 368.996C1811.34 371.238 1815.01 376.116 1815.69 381.791L1819.34 411.94C1820.03 417.615 1817.64 423.226 1813.07 426.658L1788.78 444.894C1784.21 448.326 1778.15 449.059 1772.9 446.817L1744.96 434.903C1739.7 432.66 1736.04 427.783 1735.35 422.108L1731.7 391.958C1731.02 386.283 1733.41 380.673 1737.98 377.241L1762.27 359.005C1766.84 355.573 1772.89 354.84 1778.15 357.082Z" stroke="#F6E2A1" stroke-width="2"/>
<rect x="1819.42" y="233.714" width="94" height="94" rx="17" transform="rotate(-6.90261 1819.42 233.714)" fill="#16615D"/>
<rect x="1806.84" y="121.413" width="92" height="92" rx="16" transform="rotate(-6.90261 1806.84 121.413)" stroke="#16615D" stroke-width="2"/>
<rect x="1834.58" y="348.091" width="92" height="92" rx="16" transform="rotate(-6.90261 1834.58 348.091)" stroke="#16615D" stroke-width="2"/>
<rect x="1947.09" y="333.09" width="94" height="94" rx="30" transform="rotate(-6.90261 1947.09 333.09)" fill="#FF335F"/>
<rect x="1934.85" y="221.121" width="92" height="92" rx="29" transform="rotate(-6.90261 1934.85 221.121)" stroke="#FF335F" stroke-width="2"/>
<rect x="1920.8" y="107.616" width="92" height="92" rx="29" transform="rotate(-6.90261 1920.8 107.616)" stroke="#FF335F" stroke-width="2"/>
</g>
<g clip-path="url(#clip20_102_1202)">
<path d="M1775.14 472.04C1780 468.393 1786.43 467.615 1792.02 469.997L1819.96 481.911C1825.54 484.294 1829.43 489.476 1830.16 495.505L1833.81 525.655C1834.54 531.685 1832 537.646 1827.14 541.293L1802.86 559.529C1798 563.176 1791.57 563.954 1785.98 561.572L1758.05 549.658C1752.46 547.275 1748.57 542.093 1747.84 536.064L1744.19 505.914C1743.46 499.884 1746 493.923 1750.86 490.276L1775.14 472.04Z" fill="#F6E2A1"/>
<path d="M1805.67 584.422L1833.61 596.336C1838.87 598.579 1842.53 603.456 1843.21 609.131L1846.86 639.281C1847.55 644.955 1845.16 650.566 1840.59 653.998L1816.3 672.234C1811.73 675.666 1805.68 676.399 1800.42 674.157L1772.48 662.243C1767.22 660 1763.56 655.123 1762.88 649.448L1759.23 619.298C1758.54 613.624 1760.93 608.013 1765.5 604.581L1789.79 586.345C1794.36 582.913 1800.41 582.18 1805.67 584.422Z" stroke="#F6E2A1" stroke-width="2"/>
<path d="M1819.37 697.596L1847.31 709.51C1852.57 711.752 1856.23 716.63 1856.92 722.304L1860.57 752.454C1861.25 758.129 1858.86 763.739 1854.29 767.172L1830 785.408C1825.43 788.84 1819.38 789.573 1814.12 787.331L1786.18 775.417C1780.93 773.174 1777.26 768.297 1776.58 762.622L1772.93 732.472C1772.24 726.797 1774.63 721.187 1779.2 717.755L1803.49 699.519C1808.06 696.086 1814.11 695.353 1819.37 697.596Z" stroke="#F6E2A1" stroke-width="2"/>
<rect x="1860.65" y="574.228" width="94" height="94" rx="17" transform="rotate(-6.90261 1860.65 574.228)" fill="#16615D"/>
<rect x="1848.06" y="461.926" width="92" height="92" rx="16" transform="rotate(-6.90261 1848.06 461.926)" stroke="#16615D" stroke-width="2"/>
<rect x="1875.8" y="688.605" width="92" height="92" rx="16" transform="rotate(-6.90261 1875.8 688.605)" stroke="#16615D" stroke-width="2"/>
<rect x="1988.32" y="673.604" width="94" height="94" rx="30" transform="rotate(-6.90261 1988.32 673.604)" fill="#FF335F"/>
<rect x="1976.07" y="561.634" width="92" height="92" rx="29" transform="rotate(-6.90261 1976.07 561.634)" stroke="#FF335F" stroke-width="2"/>
<rect x="1962.03" y="448.129" width="92" height="92" rx="29" transform="rotate(-6.90261 1962.03 448.129)" stroke="#FF335F" stroke-width="2"/>
</g>
<g clip-path="url(#clip21_102_1202)">
<path d="M68.5953 329.101C73.4521 325.454 79.8855 324.675 85.4721 327.058L113.408 338.972C118.994 341.354 122.886 346.536 123.615 352.566L127.265 382.716C127.995 388.745 125.453 394.706 120.596 398.353L96.3107 416.589C91.454 420.236 85.0206 421.015 79.434 418.632L51.4984 406.718C45.9117 404.336 42.0205 399.153 41.2906 393.124L37.6406 362.974C36.9107 356.944 39.4529 350.984 44.3097 347.337L68.5953 329.101Z" fill="#F6E2A1"/>
<path d="M99.1236 441.482L127.059 453.397C132.317 455.639 135.98 460.516 136.667 466.191L140.316 496.341C141.003 502.016 138.611 507.626 134.04 511.058L109.754 529.294C105.183 532.727 99.1281 533.46 93.8701 531.217L65.9345 519.303C60.6764 517.061 57.0142 512.184 56.3272 506.509L52.6772 476.359C51.9902 470.684 54.3829 465.074 58.9539 461.641L83.2396 443.405C87.8107 439.973 93.8656 439.24 99.1236 441.482Z" stroke="#F6E2A1" stroke-width="2"/>
<path d="M112.824 554.656L140.76 566.57C146.018 568.813 149.68 573.69 150.367 579.365L154.017 609.515C154.704 615.19 152.312 620.8 147.741 624.232L123.455 642.468C118.884 645.9 112.829 646.633 107.571 644.391L79.6353 632.477C74.3772 630.235 70.715 625.357 70.028 619.682L66.378 589.533C65.691 583.858 68.0837 578.247 72.6548 574.815L96.9404 556.579C101.511 553.147 107.566 552.414 112.824 554.656Z" stroke="#F6E2A1" stroke-width="2"/>
<rect x="153.602" y="431.348" width="94" height="94" rx="17" transform="rotate(-6.90261 153.602 431.348)" fill="#16615D"/>
<rect x="141.014" y="319.047" width="92" height="92" rx="16" transform="rotate(-6.90261 141.014 319.047)" stroke="#16615D" stroke-width="2"/>
<rect x="168.759" y="545.726" width="92" height="92" rx="16" transform="rotate(-6.90261 168.759 545.726)" stroke="#16615D" stroke-width="2"/>
<rect x="280.775" y="530.785" width="94" height="94" rx="30" transform="rotate(-6.90261 280.775 530.785)" fill="#FF335F"/>
<rect x="268.53" y="418.815" width="92" height="92" rx="29" transform="rotate(-6.90261 268.53 418.815)" stroke="#FF335F" stroke-width="2"/>
<rect x="254.486" y="305.31" width="92" height="92" rx="29" transform="rotate(-6.90261 254.486 305.31)" stroke="#FF335F" stroke-width="2"/>
</g>
<g clip-path="url(#clip22_102_1202)">
<path d="M109.818 669.615C114.674 665.968 121.108 665.189 126.695 667.572L154.63 679.486C160.217 681.868 164.108 687.05 164.838 693.08L168.488 723.23C169.218 729.259 166.676 735.22 161.819 738.867L137.533 757.103C132.676 760.75 126.243 761.529 120.656 759.146L92.7208 747.232C87.1341 744.849 83.2429 739.667 82.513 733.638L78.8631 703.488C78.1331 697.458 80.6753 691.498 85.5321 687.851L109.818 669.615Z" fill="#F6E2A1"/>
<path d="M140.346 781.996L168.282 793.91C173.54 796.153 177.202 801.03 177.889 806.705L181.539 836.855C182.226 842.53 179.833 848.14 175.262 851.572L150.977 869.808C146.405 873.241 140.351 873.974 135.092 871.731L107.157 859.817C101.899 857.575 98.2366 852.697 97.5496 847.023L93.8996 816.873C93.2126 811.198 95.6053 805.588 100.176 802.155L124.462 783.919C129.033 780.487 135.088 779.754 140.346 781.996Z" stroke="#F6E2A1" stroke-width="2"/>
<path d="M154.047 895.17L181.982 907.084C187.24 909.327 190.903 914.204 191.59 919.879L195.24 950.029C195.927 955.703 193.534 961.314 188.963 964.746L164.677 982.982C160.106 986.414 154.051 987.147 148.793 984.905L120.858 972.991C115.6 970.748 111.937 965.871 111.25 960.196L107.6 930.046C106.913 924.372 109.306 918.761 113.877 915.329L138.163 897.093C142.734 893.661 148.789 892.928 154.047 895.17Z" stroke="#F6E2A1" stroke-width="2"/>
<rect x="194.824" y="771.862" width="94" height="94" rx="17" transform="rotate(-6.90261 194.824 771.862)" fill="#16615D"/>
<rect x="182.236" y="659.561" width="92" height="92" rx="16" transform="rotate(-6.90261 182.236 659.561)" stroke="#16615D" stroke-width="2"/>
<rect x="209.981" y="886.239" width="92" height="92" rx="16" transform="rotate(-6.90261 209.981 886.239)" stroke="#16615D" stroke-width="2"/>
<rect x="321.997" y="871.299" width="94" height="94" rx="30" transform="rotate(-6.90261 321.997 871.299)" fill="#FF335F"/>
<rect x="309.753" y="759.329" width="92" height="92" rx="29" transform="rotate(-6.90261 309.753 759.329)" stroke="#FF335F" stroke-width="2"/>
<rect x="295.709" y="645.824" width="92" height="92" rx="29" transform="rotate(-6.90261 295.709 645.824)" stroke="#FF335F" stroke-width="2"/>
</g>
<g clip-path="url(#clip23_102_1202)">
<path d="M1400.87 167.816C1405.73 164.17 1412.16 163.391 1417.75 165.773L1445.68 177.687C1451.27 180.07 1455.16 185.252 1455.89 191.282L1459.54 221.432C1460.27 227.461 1457.73 233.422 1452.87 237.069L1428.58 255.305C1423.73 258.952 1417.29 259.73 1411.71 257.348L1383.77 245.434C1378.18 243.051 1374.29 237.869 1373.56 231.84L1369.91 201.69C1369.18 195.66 1371.73 189.699 1376.58 186.052L1400.87 167.816Z" fill="#F6E2A1"/>
<path d="M1431.4 280.198L1459.33 292.112C1464.59 294.355 1468.25 299.232 1468.94 304.907L1472.59 335.057C1473.28 340.732 1470.88 346.342 1466.31 349.774L1442.03 368.01C1437.46 371.442 1431.4 372.175 1426.14 369.933L1398.21 358.019C1392.95 355.776 1389.29 350.899 1388.6 345.224L1384.95 315.074C1384.26 309.4 1386.66 303.789 1391.23 300.357L1415.51 282.121C1420.08 278.689 1426.14 277.956 1431.4 280.198Z" stroke="#F6E2A1" stroke-width="2"/>
<path d="M1445.1 393.372L1473.03 405.286C1478.29 407.528 1481.95 412.406 1482.64 418.08L1486.29 448.23C1486.98 453.905 1484.58 459.516 1480.01 462.948L1455.73 481.184C1451.16 484.616 1445.1 485.349 1439.84 483.107L1411.91 471.193C1406.65 468.95 1402.99 464.073 1402.3 458.398L1398.65 428.248C1397.96 422.573 1400.36 416.963 1404.93 413.531L1429.21 395.295C1433.78 391.862 1439.84 391.129 1445.1 393.372Z" stroke="#F6E2A1" stroke-width="2"/>
<rect x="1485.87" y="270.064" width="94" height="94" rx="17" transform="rotate(-6.90261 1485.87 270.064)" fill="#16615D"/>
<rect x="1473.29" y="157.763" width="92" height="92" rx="16" transform="rotate(-6.90261 1473.29 157.763)" stroke="#16615D" stroke-width="2"/>
<rect x="1501.03" y="384.441" width="92" height="92" rx="16" transform="rotate(-6.90261 1501.03 384.441)" stroke="#16615D" stroke-width="2"/>
<rect x="1613.05" y="369.501" width="94" height="94" rx="30" transform="rotate(-6.90261 1613.05 369.501)" fill="#FF335F"/>
<rect x="1600.8" y="257.531" width="92" height="92" rx="29" transform="rotate(-6.90261 1600.8 257.531)" stroke="#FF335F" stroke-width="2"/>
<rect x="1586.76" y="144.026" width="92" height="92" rx="29" transform="rotate(-6.90261 1586.76 144.026)" stroke="#FF335F" stroke-width="2"/>
</g>
<g clip-path="url(#clip24_102_1202)">
<path d="M1442.09 508.33C1446.95 504.683 1453.38 503.905 1458.97 506.287L1486.9 518.201C1492.49 520.584 1496.38 525.766 1497.11 531.795L1500.76 561.945C1501.49 567.975 1498.95 573.936 1494.09 577.583L1469.81 595.819C1464.95 599.465 1458.52 600.244 1452.93 597.862L1424.99 585.948C1419.41 583.565 1415.52 578.383 1414.79 572.353L1411.14 542.204C1410.41 536.174 1412.95 530.213 1417.81 526.566L1442.09 508.33Z" fill="#F6E2A1"/>
<path d="M1472.62 620.712L1500.55 632.626C1505.81 634.869 1509.48 639.746 1510.16 645.421L1513.81 675.571C1514.5 681.245 1512.11 686.856 1507.54 690.288L1483.25 708.524C1478.68 711.956 1472.62 712.689 1467.37 710.447L1439.43 698.533C1434.17 696.29 1430.51 691.413 1429.82 685.738L1426.17 655.588C1425.49 649.913 1427.88 644.303 1432.45 640.871L1456.74 622.635C1461.31 619.203 1467.36 618.47 1472.62 620.712Z" stroke="#F6E2A1" stroke-width="2"/>
<path d="M1486.32 733.886L1514.26 745.8C1519.51 748.042 1523.18 752.92 1523.86 758.594L1527.51 788.744C1528.2 794.419 1525.81 800.029 1521.24 803.462L1496.95 821.698C1492.38 825.13 1486.32 825.863 1481.07 823.621L1453.13 811.707C1447.87 809.464 1444.21 804.587 1443.52 798.912L1439.87 768.762C1439.19 763.087 1441.58 757.477 1446.15 754.045L1470.44 735.809C1475.01 732.376 1481.06 731.643 1486.32 733.886Z" stroke="#F6E2A1" stroke-width="2"/>
<rect x="1527.1" y="610.578" width="94" height="94" rx="17" transform="rotate(-6.90261 1527.1 610.578)" fill="#16615D"/>
<rect x="1514.51" y="498.277" width="92" height="92" rx="16" transform="rotate(-6.90261 1514.51 498.277)" stroke="#16615D" stroke-width="2"/>
<rect x="1542.25" y="724.955" width="92" height="92" rx="16" transform="rotate(-6.90261 1542.25 724.955)" stroke="#16615D" stroke-width="2"/>
<rect x="1654.27" y="710.014" width="94" height="94" rx="30" transform="rotate(-6.90261 1654.27 710.014)" fill="#FF335F"/>
<rect x="1642.03" y="598.045" width="92" height="92" rx="29" transform="rotate(-6.90261 1642.03 598.045)" stroke="#FF335F" stroke-width="2"/>
<rect x="1627.98" y="484.54" width="92" height="92" rx="29" transform="rotate(-6.90261 1627.98 484.54)" stroke="#FF335F" stroke-width="2"/>
</g>
<g clip-path="url(#clip25_102_1202)">
<path d="M734.732 248.459C739.589 244.812 746.022 244.033 751.609 246.416L779.544 258.33C785.131 260.712 789.022 265.894 789.752 271.924L793.402 302.074C794.132 308.103 791.59 314.064 786.733 317.711L762.447 335.947C757.59 339.594 751.157 340.373 745.57 337.99L717.635 326.076C712.048 323.693 708.157 318.511 707.427 312.482L703.777 282.332C703.047 276.302 705.589 270.341 710.446 266.695L734.732 248.459Z" fill="#F6E2A1"/>
<path d="M765.26 360.84L793.196 372.754C798.454 374.997 802.116 379.874 802.803 385.549L806.453 415.699C807.14 421.374 804.747 426.984 800.176 430.416L775.891 448.652C771.32 452.085 765.265 452.818 760.007 450.575L732.071 438.661C726.813 436.419 723.151 431.541 722.464 425.867L718.814 395.717C718.127 390.042 720.519 384.432 725.09 380.999L749.376 362.763C753.947 359.331 760.002 358.598 765.26 360.84Z" stroke="#F6E2A1" stroke-width="2"/>
<path d="M778.961 474.014L806.896 485.928C812.154 488.171 815.817 493.048 816.504 498.723L820.154 528.873C820.841 534.547 818.448 540.158 813.877 543.59L789.591 561.826C785.02 565.258 778.965 565.991 773.707 563.749L745.772 551.835C740.514 549.592 736.851 544.715 736.164 539.04L732.514 508.89C731.827 503.216 734.22 497.605 738.791 494.173L763.077 475.937C767.648 472.505 773.703 471.772 778.961 474.014Z" stroke="#F6E2A1" stroke-width="2"/>
<rect x="819.738" y="350.706" width="94" height="94" rx="17" transform="rotate(-6.90261 819.738 350.706)" fill="#16615D"/>
<rect x="807.15" y="238.405" width="92" height="92" rx="16" transform="rotate(-6.90261 807.15 238.405)" stroke="#16615D" stroke-width="2"/>
<rect x="834.895" y="465.083" width="92" height="92" rx="16" transform="rotate(-6.90261 834.895 465.083)" stroke="#16615D" stroke-width="2"/>
<rect x="946.911" y="450.143" width="94" height="94" rx="30" transform="rotate(-6.90261 946.911 450.143)" fill="#FF335F"/>
<rect x="934.667" y="338.173" width="92" height="92" rx="29" transform="rotate(-6.90261 934.667 338.173)" stroke="#FF335F" stroke-width="2"/>
<rect x="920.623" y="224.668" width="92" height="92" rx="29" transform="rotate(-6.90261 920.623 224.668)" stroke="#FF335F" stroke-width="2"/>
</g>
<g clip-path="url(#clip26_102_1202)">
<path d="M775.954 588.973C780.811 585.326 787.244 584.547 792.831 586.929L820.767 598.843C826.353 601.226 830.245 606.408 830.974 612.438L834.624 642.588C835.354 648.617 832.812 654.578 827.955 658.225L803.67 676.461C798.813 680.108 792.38 680.887 786.793 678.504L758.857 666.59C753.271 664.207 749.379 659.025 748.65 652.996L745 622.846C744.27 616.816 746.812 610.855 751.669 607.208L775.954 588.973Z" fill="#F6E2A1"/>
<path d="M806.483 701.354L834.418 713.268C839.676 715.511 843.339 720.388 844.026 726.063L847.675 756.213C848.362 761.888 845.97 767.498 841.399 770.93L817.113 789.166C812.542 792.599 806.487 793.332 801.229 791.089L773.293 779.175C768.035 776.933 764.373 772.055 763.686 766.381L760.036 736.231C759.349 730.556 761.742 724.945 766.313 721.513L790.599 703.277C795.17 699.845 801.225 699.112 806.483 701.354Z" stroke="#F6E2A1" stroke-width="2"/>
<path d="M820.183 814.528L848.119 826.442C853.377 828.684 857.039 833.562 857.726 839.237L861.376 869.387C862.063 875.061 859.671 880.672 855.099 884.104L830.814 902.34C826.243 905.772 820.188 906.505 814.93 904.263L786.994 892.349C781.736 890.106 778.074 885.229 777.387 879.554L773.737 849.404C773.05 843.729 775.443 838.119 780.014 834.687L804.299 816.451C808.87 813.019 814.925 812.286 820.183 814.528Z" stroke="#F6E2A1" stroke-width="2"/>
<rect x="860.961" y="691.22" width="94" height="94" rx="17" transform="rotate(-6.90261 860.961 691.22)" fill="#16615D"/>
<rect x="848.373" y="578.919" width="92" height="92" rx="16" transform="rotate(-6.90261 848.373 578.919)" stroke="#16615D" stroke-width="2"/>
<rect x="876.118" y="805.597" width="92" height="92" rx="16" transform="rotate(-6.90261 876.118 805.597)" stroke="#16615D" stroke-width="2"/>
<rect x="988.134" y="790.657" width="94" height="94" rx="30" transform="rotate(-6.90261 988.134 790.657)" fill="#FF335F"/>
<rect x="975.889" y="678.687" width="92" height="92" rx="29" transform="rotate(-6.90261 975.889 678.687)" stroke="#FF335F" stroke-width="2"/>
<rect x="961.845" y="565.182" width="92" height="92" rx="29" transform="rotate(-6.90261 961.845 565.182)" stroke="#FF335F" stroke-width="2"/>
</g>
<g clip-path="url(#clip27_102_1202)">
<rect x="-50.8043" y="570.926" width="94" height="94" rx="30" transform="rotate(-6.90261 -50.8043 570.926)" fill="#FF335F"/>
<rect x="-63.0491" y="458.956" width="92" height="92" rx="29" transform="rotate(-6.90261 -63.0491 458.956)" stroke="#FF335F" stroke-width="2"/>
<rect x="-77.0929" y="345.451" width="92" height="92" rx="29" transform="rotate(-6.90261 -77.0929 345.451)" stroke="#FF335F" stroke-width="2"/>
</g>
<g clip-path="url(#clip28_102_1202)">
<rect x="-9.58191" y="911.44" width="94" height="94" rx="30" transform="rotate(-6.90261 -9.58191 911.44)" fill="#FF335F"/>
<rect x="-21.8266" y="799.47" width="92" height="92" rx="29" transform="rotate(-6.90261 -21.8266 799.47)" stroke="#FF335F" stroke-width="2"/>
<rect x="-35.8705" y="685.965" width="92" height="92" rx="29" transform="rotate(-6.90261 -35.8705 685.965)" stroke="#FF335F" stroke-width="2"/>
</g>
<g clip-path="url(#clip29_102_1202)">
<path d="M1068.3 208.077C1073.15 204.431 1079.59 203.652 1085.17 206.034L1113.11 217.948C1118.7 220.331 1122.59 225.513 1123.32 231.543L1126.97 261.693C1127.7 267.722 1125.15 273.683 1120.3 277.33L1096.01 295.566C1091.16 299.213 1084.72 299.991 1079.14 297.609L1051.2 285.695C1045.61 283.312 1041.72 278.13 1040.99 272.101L1037.34 241.951C1036.61 235.921 1039.15 229.96 1044.01 226.313L1068.3 208.077Z" fill="#F6E2A1"/>
<path d="M1098.82 320.459L1126.76 332.373C1132.02 334.616 1135.68 339.493 1136.37 345.168L1140.02 375.318C1140.7 380.993 1138.31 386.603 1133.74 390.035L1109.46 408.271C1104.88 411.703 1098.83 412.436 1093.57 410.194L1065.64 398.28C1060.38 396.037 1056.72 391.16 1056.03 385.485L1052.38 355.335C1051.69 349.661 1054.08 344.05 1058.66 340.618L1082.94 322.382C1087.51 318.95 1093.57 318.217 1098.82 320.459Z" stroke="#F6E2A1" stroke-width="2"/>
<path d="M1112.53 433.633L1140.46 445.547C1145.72 447.789 1149.38 452.667 1150.07 458.341L1153.72 488.491C1154.41 494.166 1152.01 499.777 1147.44 503.209L1123.16 521.445C1118.58 524.877 1112.53 525.61 1107.27 523.368L1079.34 511.454C1074.08 509.211 1070.42 504.334 1069.73 498.659L1066.08 468.509C1065.39 462.834 1067.78 457.224 1072.36 453.792L1096.64 435.556C1101.21 432.123 1107.27 431.39 1112.53 433.633Z" stroke="#F6E2A1" stroke-width="2"/>
<rect x="1153.8" y="310.265" width="94" height="94" rx="17" transform="rotate(-6.90261 1153.8 310.265)" fill="#16615D"/>
<rect x="1141.21" y="197.964" width="92" height="92" rx="16" transform="rotate(-6.90261 1141.21 197.964)" stroke="#16615D" stroke-width="2"/>
<rect x="1168.96" y="424.642" width="92" height="92" rx="16" transform="rotate(-6.90261 1168.96 424.642)" stroke="#16615D" stroke-width="2"/>
<rect x="1281.47" y="409.641" width="94" height="94" rx="30" transform="rotate(-6.90261 1281.47 409.641)" fill="#FF335F"/>
<rect x="1269.22" y="297.671" width="92" height="92" rx="29" transform="rotate(-6.90261 1269.22 297.671)" stroke="#FF335F" stroke-width="2"/>
<rect x="1255.18" y="184.167" width="92" height="92" rx="29" transform="rotate(-6.90261 1255.18 184.167)" stroke="#FF335F" stroke-width="2"/>
</g>
<g clip-path="url(#clip30_102_1202)">
<path d="M1109.52 548.591C1114.38 544.944 1120.81 544.166 1126.4 546.548L1154.33 558.462C1159.92 560.845 1163.81 566.027 1164.54 572.056L1168.19 602.206C1168.92 608.236 1166.38 614.197 1161.52 617.844L1137.23 636.08C1132.38 639.726 1125.94 640.505 1120.36 638.123L1092.42 626.209C1086.84 623.826 1082.94 618.644 1082.21 612.614L1078.56 582.465C1077.83 576.435 1080.38 570.474 1085.23 566.827L1109.52 548.591Z" fill="#F6E2A1"/>
<path d="M1140.05 660.973L1167.98 672.887C1173.24 675.13 1176.9 680.007 1177.59 685.682L1181.24 715.832C1181.93 721.506 1179.53 727.117 1174.96 730.549L1150.68 748.785C1146.11 752.217 1140.05 752.95 1134.79 750.708L1106.86 738.794C1101.6 736.551 1097.94 731.674 1097.25 725.999L1093.6 695.849C1092.91 690.174 1095.31 684.564 1099.88 681.132L1124.16 662.896C1128.73 659.464 1134.79 658.731 1140.05 660.973Z" stroke="#F6E2A1" stroke-width="2"/>
<path d="M1153.75 774.147L1181.68 786.061C1186.94 788.303 1190.6 793.18 1191.29 798.855L1194.94 829.005C1195.63 834.68 1193.24 840.29 1188.66 843.723L1164.38 861.959C1159.81 865.391 1153.75 866.124 1148.49 863.882L1120.56 851.967C1115.3 849.725 1111.64 844.848 1110.95 839.173L1107.3 809.023C1106.61 803.348 1109.01 797.738 1113.58 794.306L1137.86 776.07C1142.43 772.637 1148.49 771.904 1153.75 774.147Z" stroke="#F6E2A1" stroke-width="2"/>
<rect x="1195.02" y="650.778" width="94" height="94" rx="17" transform="rotate(-6.90261 1195.02 650.778)" fill="#16615D"/>
<rect x="1182.43" y="538.477" width="92" height="92" rx="16" transform="rotate(-6.90261 1182.43 538.477)" stroke="#16615D" stroke-width="2"/>
<rect x="1210.18" y="765.156" width="92" height="92" rx="16" transform="rotate(-6.90261 1210.18 765.156)" stroke="#16615D" stroke-width="2"/>
<rect x="1322.69" y="750.155" width="94" height="94" rx="30" transform="rotate(-6.90261 1322.69 750.155)" fill="#FF335F"/>
<rect x="1310.45" y="638.185" width="92" height="92" rx="29" transform="rotate(-6.90261 1310.45 638.185)" stroke="#FF335F" stroke-width="2"/>
<rect x="1296.4" y="524.68" width="92" height="92" rx="29" transform="rotate(-6.90261 1296.4 524.68)" stroke="#FF335F" stroke-width="2"/>
</g>
<g clip-path="url(#clip31_102_1202)">
<path d="M402.16 288.72C407.017 285.073 413.45 284.294 419.037 286.677L446.972 298.591C452.559 300.973 456.45 306.155 457.18 312.185L460.83 342.335C461.56 348.364 459.018 354.325 454.161 357.972L429.875 376.208C425.019 379.855 418.585 380.634 412.999 378.251L385.063 366.337C379.476 363.954 375.585 358.772 374.855 352.743L371.205 322.593C370.475 316.563 373.018 310.602 377.874 306.956L402.16 288.72Z" fill="#F6E2A1"/>
<path d="M432.688 401.101L460.624 413.015C465.882 415.258 469.544 420.135 470.231 425.81L473.881 455.96C474.568 461.635 472.175 467.245 467.604 470.677L443.319 488.913C438.748 492.346 432.693 493.079 427.435 490.836L399.499 478.922C394.241 476.68 390.579 471.802 389.892 466.128L386.242 435.978C385.555 430.303 387.947 424.693 392.519 421.26L416.804 403.024C421.375 399.592 427.43 398.859 432.688 401.101Z" stroke="#F6E2A1" stroke-width="2"/>
<path d="M446.389 514.275L474.325 526.189C479.583 528.432 483.245 533.309 483.932 538.984L487.582 569.134C488.269 574.808 485.876 580.419 481.305 583.851L457.019 602.087C452.448 605.519 446.393 606.252 441.135 604.01L413.2 592.096C407.942 589.853 404.279 584.976 403.592 579.301L399.943 549.151C399.256 543.477 401.648 537.866 406.219 534.434L430.505 516.198C435.076 512.766 441.131 512.033 446.389 514.275Z" stroke="#F6E2A1" stroke-width="2"/>
<rect x="487.663" y="390.907" width="94" height="94" rx="17" transform="rotate(-6.90261 487.663 390.907)" fill="#16615D"/>
<rect x="475.075" y="278.606" width="92" height="92" rx="16" transform="rotate(-6.90261 475.075 278.606)" stroke="#16615D" stroke-width="2"/>
<rect x="502.82" y="505.284" width="92" height="92" rx="16" transform="rotate(-6.90261 502.82 505.284)" stroke="#16615D" stroke-width="2"/>
<rect x="615.332" y="490.284" width="94" height="94" rx="30" transform="rotate(-6.90261 615.332 490.284)" fill="#FF335F"/>
<rect x="603.087" y="378.314" width="92" height="92" rx="29" transform="rotate(-6.90261 603.087 378.314)" stroke="#FF335F" stroke-width="2"/>
<rect x="589.044" y="264.809" width="92" height="92" rx="29" transform="rotate(-6.90261 589.044 264.809)" stroke="#FF335F" stroke-width="2"/>
</g>
<g clip-path="url(#clip32_102_1202)">
<path d="M443.382 629.234C448.239 625.587 454.673 624.808 460.259 627.19L488.195 639.104C493.781 641.487 497.673 646.669 498.403 652.699L502.052 682.849C502.782 688.878 500.24 694.839 495.383 698.486L471.098 716.722C466.241 720.369 459.808 721.148 454.221 718.765L426.285 706.851C420.699 704.468 416.808 699.286 416.078 693.257L412.428 663.107C411.698 657.077 414.24 651.116 419.097 647.469L443.382 629.234Z" fill="#F6E2A1"/>
<path d="M473.911 741.615L501.846 753.529C507.104 755.772 510.767 760.649 511.454 766.324L515.104 796.474C515.791 802.149 513.398 807.759 508.827 811.191L484.541 829.427C479.97 832.859 473.915 833.593 468.657 831.35L440.722 819.436C435.463 817.194 431.801 812.316 431.114 806.641L427.464 776.492C426.777 770.817 429.17 765.206 433.741 761.774L458.027 743.538C462.598 740.106 468.653 739.373 473.911 741.615Z" stroke="#F6E2A1" stroke-width="2"/>
<path d="M487.611 854.789L515.547 866.703C520.805 868.945 524.467 873.823 525.154 879.498L528.804 909.647C529.491 915.322 527.099 920.933 522.528 924.365L498.242 942.601C493.671 946.033 487.616 946.766 482.358 944.524L454.422 932.61C449.164 930.367 445.502 925.49 444.815 919.815L441.165 889.665C440.478 883.99 442.871 878.38 447.442 874.948L471.727 856.712C476.298 853.28 482.353 852.547 487.611 854.789Z" stroke="#F6E2A1" stroke-width="2"/>
<rect x="528.885" y="731.421" width="94" height="94" rx="17" transform="rotate(-6.90261 528.885 731.421)" fill="#16615D"/>
<rect x="516.297" y="619.12" width="92" height="92" rx="16" transform="rotate(-6.90261 516.297 619.12)" stroke="#16615D" stroke-width="2"/>
<rect x="544.042" y="845.798" width="92" height="92" rx="16" transform="rotate(-6.90261 544.042 845.798)" stroke="#16615D" stroke-width="2"/>
<rect x="656.555" y="830.797" width="94" height="94" rx="30" transform="rotate(-6.90261 656.555 830.797)" fill="#FF335F"/>
<rect x="644.31" y="718.828" width="92" height="92" rx="29" transform="rotate(-6.90261 644.31 718.828)" stroke="#FF335F" stroke-width="2"/>
<rect x="630.266" y="605.323" width="92" height="92" rx="29" transform="rotate(-6.90261 630.266 605.323)" stroke="#FF335F" stroke-width="2"/>
</g>
<g clip-path="url(#clip33_102_1202)">
<path d="M1400.87 167.816C1405.73 164.17 1412.16 163.391 1417.75 165.773L1445.68 177.687C1451.27 180.07 1455.16 185.252 1455.89 191.282L1459.54 221.432C1460.27 227.461 1457.73 233.422 1452.87 237.069L1428.58 255.305C1423.73 258.952 1417.29 259.73 1411.71 257.348L1383.77 245.434C1378.18 243.051 1374.29 237.869 1373.56 231.84L1369.91 201.69C1369.18 195.66 1371.73 189.699 1376.58 186.052L1400.87 167.816Z" fill="#F6E2A1"/>
<path d="M1431.4 280.198L1459.33 292.112C1464.59 294.355 1468.25 299.232 1468.94 304.907L1472.59 335.057C1473.28 340.732 1470.88 346.342 1466.31 349.774L1442.03 368.01C1437.46 371.442 1431.4 372.175 1426.14 369.933L1398.21 358.019C1392.95 355.776 1389.29 350.899 1388.6 345.224L1384.95 315.074C1384.26 309.4 1386.66 303.789 1391.23 300.357L1415.51 282.121C1420.08 278.689 1426.14 277.956 1431.4 280.198Z" stroke="#F6E2A1" stroke-width="2"/>
<path d="M1445.1 393.372L1473.03 405.286C1478.29 407.528 1481.95 412.406 1482.64 418.08L1486.29 448.23C1486.98 453.905 1484.58 459.516 1480.01 462.948L1455.73 481.184C1451.16 484.616 1445.1 485.349 1439.84 483.107L1411.91 471.193C1406.65 468.95 1402.99 464.073 1402.3 458.398L1398.65 428.248C1397.96 422.573 1400.36 416.963 1404.93 413.531L1429.21 395.295C1433.78 391.862 1439.84 391.129 1445.1 393.372Z" stroke="#F6E2A1" stroke-width="2"/>
<rect x="1485.87" y="270.064" width="94" height="94" rx="17" transform="rotate(-6.90261 1485.87 270.064)" fill="#16615D"/>
<rect x="1473.29" y="157.763" width="92" height="92" rx="16" transform="rotate(-6.90261 1473.29 157.763)" stroke="#16615D" stroke-width="2"/>
<rect x="1501.03" y="384.441" width="92" height="92" rx="16" transform="rotate(-6.90261 1501.03 384.441)" stroke="#16615D" stroke-width="2"/>
<rect x="1613.05" y="369.501" width="94" height="94" rx="30" transform="rotate(-6.90261 1613.05 369.501)" fill="#FF335F"/>
<rect x="1600.8" y="257.531" width="92" height="92" rx="29" transform="rotate(-6.90261 1600.8 257.531)" stroke="#FF335F" stroke-width="2"/>
<rect x="1586.76" y="144.026" width="92" height="92" rx="29" transform="rotate(-6.90261 1586.76 144.026)" stroke="#FF335F" stroke-width="2"/>
</g>
<g clip-path="url(#clip34_102_1202)">
<path d="M1442.09 508.33C1446.95 504.683 1453.38 503.905 1458.97 506.287L1486.9 518.201C1492.49 520.584 1496.38 525.766 1497.11 531.795L1500.76 561.945C1501.49 567.975 1498.95 573.936 1494.09 577.583L1469.81 595.819C1464.95 599.465 1458.52 600.244 1452.93 597.862L1424.99 585.948C1419.41 583.565 1415.52 578.383 1414.79 572.353L1411.14 542.204C1410.41 536.174 1412.95 530.213 1417.81 526.566L1442.09 508.33Z" fill="#F6E2A1"/>
<path d="M1472.62 620.712L1500.55 632.626C1505.81 634.869 1509.48 639.746 1510.16 645.421L1513.81 675.571C1514.5 681.245 1512.11 686.856 1507.54 690.288L1483.25 708.524C1478.68 711.956 1472.62 712.689 1467.37 710.447L1439.43 698.533C1434.17 696.29 1430.51 691.413 1429.82 685.738L1426.17 655.588C1425.49 649.913 1427.88 644.303 1432.45 640.871L1456.74 622.635C1461.31 619.203 1467.36 618.47 1472.62 620.712Z" stroke="#F6E2A1" stroke-width="2"/>
<path d="M1486.32 733.886L1514.26 745.8C1519.51 748.042 1523.18 752.92 1523.86 758.594L1527.51 788.744C1528.2 794.419 1525.81 800.029 1521.24 803.462L1496.95 821.698C1492.38 825.13 1486.32 825.863 1481.07 823.621L1453.13 811.707C1447.87 809.464 1444.21 804.587 1443.52 798.912L1439.87 768.762C1439.19 763.087 1441.58 757.477 1446.15 754.045L1470.44 735.809C1475.01 732.376 1481.06 731.643 1486.32 733.886Z" stroke="#F6E2A1" stroke-width="2"/>
<rect x="1527.1" y="610.578" width="94" height="94" rx="17" transform="rotate(-6.90261 1527.1 610.578)" fill="#16615D"/>
<rect x="1514.51" y="498.277" width="92" height="92" rx="16" transform="rotate(-6.90261 1514.51 498.277)" stroke="#16615D" stroke-width="2"/>
<rect x="1542.25" y="724.955" width="92" height="92" rx="16" transform="rotate(-6.90261 1542.25 724.955)" stroke="#16615D" stroke-width="2"/>
<rect x="1654.27" y="710.014" width="94" height="94" rx="30" transform="rotate(-6.90261 1654.27 710.014)" fill="#FF335F"/>
<rect x="1642.03" y="598.045" width="92" height="92" rx="29" transform="rotate(-6.90261 1642.03 598.045)" stroke="#FF335F" stroke-width="2"/>
<rect x="1627.98" y="484.54" width="92" height="92" rx="29" transform="rotate(-6.90261 1627.98 484.54)" stroke="#FF335F" stroke-width="2"/>
</g>
<g clip-path="url(#clip35_102_1202)">
<path d="M734.732 248.459C739.589 244.812 746.022 244.033 751.609 246.416L779.544 258.33C785.131 260.712 789.022 265.894 789.752 271.924L793.402 302.074C794.132 308.103 791.59 314.064 786.733 317.711L762.447 335.947C757.59 339.594 751.157 340.373 745.57 337.99L717.635 326.076C712.048 323.693 708.157 318.511 707.427 312.482L703.777 282.332C703.047 276.302 705.589 270.341 710.446 266.695L734.732 248.459Z" fill="#F6E2A1"/>
<path d="M765.26 360.84L793.196 372.754C798.454 374.997 802.116 379.874 802.803 385.549L806.453 415.699C807.14 421.374 804.747 426.984 800.176 430.416L775.891 448.652C771.32 452.085 765.265 452.818 760.007 450.575L732.071 438.661C726.813 436.419 723.151 431.541 722.464 425.867L718.814 395.717C718.127 390.042 720.519 384.432 725.09 380.999L749.376 362.763C753.947 359.331 760.002 358.598 765.26 360.84Z" stroke="#F6E2A1" stroke-width="2"/>
<path d="M778.961 474.014L806.896 485.928C812.154 488.171 815.817 493.048 816.504 498.723L820.154 528.873C820.841 534.547 818.448 540.158 813.877 543.59L789.591 561.826C785.02 565.258 778.965 565.991 773.707 563.749L745.772 551.835C740.514 549.592 736.851 544.715 736.164 539.04L732.514 508.89C731.827 503.216 734.22 497.605 738.791 494.173L763.077 475.937C767.648 472.505 773.703 471.772 778.961 474.014Z" stroke="#F6E2A1" stroke-width="2"/>
<rect x="819.738" y="350.706" width="94" height="94" rx="17" transform="rotate(-6.90261 819.738 350.706)" fill="#16615D"/>
<rect x="807.15" y="238.405" width="92" height="92" rx="16" transform="rotate(-6.90261 807.15 238.405)" stroke="#16615D" stroke-width="2"/>
<rect x="834.895" y="465.083" width="92" height="92" rx="16" transform="rotate(-6.90261 834.895 465.083)" stroke="#16615D" stroke-width="2"/>
<rect x="946.911" y="450.143" width="94" height="94" rx="30" transform="rotate(-6.90261 946.911 450.143)" fill="#FF335F"/>
<rect x="934.667" y="338.173" width="92" height="92" rx="29" transform="rotate(-6.90261 934.667 338.173)" stroke="#FF335F" stroke-width="2"/>
<rect x="920.623" y="224.668" width="92" height="92" rx="29" transform="rotate(-6.90261 920.623 224.668)" stroke="#FF335F" stroke-width="2"/>
</g>
<g clip-path="url(#clip36_102_1202)">
<path d="M775.954 588.973C780.811 585.326 787.244 584.547 792.831 586.929L820.767 598.843C826.353 601.226 830.245 606.408 830.974 612.438L834.624 642.588C835.354 648.617 832.812 654.578 827.955 658.225L803.67 676.461C798.813 680.108 792.38 680.887 786.793 678.504L758.857 666.59C753.271 664.207 749.379 659.025 748.65 652.996L745 622.846C744.27 616.816 746.812 610.855 751.669 607.208L775.954 588.973Z" fill="#F6E2A1"/>
<path d="M806.483 701.354L834.418 713.268C839.676 715.511 843.339 720.388 844.026 726.063L847.675 756.213C848.362 761.888 845.97 767.498 841.399 770.93L817.113 789.166C812.542 792.599 806.487 793.332 801.229 791.089L773.293 779.175C768.035 776.933 764.373 772.055 763.686 766.381L760.036 736.231C759.349 730.556 761.742 724.945 766.313 721.513L790.599 703.277C795.17 699.845 801.225 699.112 806.483 701.354Z" stroke="#F6E2A1" stroke-width="2"/>
<path d="M820.183 814.528L848.119 826.442C853.377 828.684 857.039 833.562 857.726 839.237L861.376 869.387C862.063 875.061 859.671 880.672 855.099 884.104L830.814 902.34C826.243 905.772 820.188 906.505 814.93 904.263L786.994 892.349C781.736 890.106 778.074 885.229 777.387 879.554L773.737 849.404C773.05 843.729 775.443 838.119 780.014 834.687L804.299 816.451C808.87 813.019 814.925 812.286 820.183 814.528Z" stroke="#F6E2A1" stroke-width="2"/>
<rect x="860.961" y="691.22" width="94" height="94" rx="17" transform="rotate(-6.90261 860.961 691.22)" fill="#16615D"/>
<rect x="848.373" y="578.919" width="92" height="92" rx="16" transform="rotate(-6.90261 848.373 578.919)" stroke="#16615D" stroke-width="2"/>
<rect x="876.118" y="805.597" width="92" height="92" rx="16" transform="rotate(-6.90261 876.118 805.597)" stroke="#16615D" stroke-width="2"/>
<rect x="988.134" y="790.657" width="94" height="94" rx="30" transform="rotate(-6.90261 988.134 790.657)" fill="#FF335F"/>
<rect x="975.889" y="678.687" width="92" height="92" rx="29" transform="rotate(-6.90261 975.889 678.687)" stroke="#FF335F" stroke-width="2"/>
<rect x="961.845" y="565.182" width="92" height="92" rx="29" transform="rotate(-6.90261 961.845 565.182)" stroke="#FF335F" stroke-width="2"/>
</g>
<g clip-path="url(#clip37_102_1202)">
<path d="M2066.93 -32.448L2094.87 -20.534C2100.13 -18.2915 2103.79 -13.4143 2104.48 -7.73945L2108.13 22.4105C2108.81 28.0853 2106.42 33.6956 2101.85 37.1279L2077.56 55.3639C2072.99 58.7962 2066.94 59.5292 2061.68 57.2868L2033.74 45.3727C2028.49 43.1303 2024.82 38.253 2024.14 32.5782L2020.49 2.42826C2019.8 -3.24655 2022.19 -8.85681 2026.76 -12.2892L2051.05 -30.5251C2055.62 -33.9575 2061.68 -34.6905 2066.93 -32.448Z" stroke="#F6E2A1" stroke-width="2"/>
</g>
<g clip-path="url(#clip38_102_1202)">
<rect x="5.35195" y="1026.48" width="92" height="92" rx="29" transform="rotate(-6.90261 5.35195 1026.48)" stroke="#FF335F" stroke-width="2"/>
</g>
<g clip-path="url(#clip39_102_1202)">
<path d="M1150.74 889.105C1155.6 885.458 1162.03 884.68 1167.62 887.062L1195.55 898.976C1201.14 901.359 1205.03 906.541 1205.76 912.57L1209.41 942.72C1210.14 948.75 1207.6 954.711 1202.74 958.358L1178.46 976.594C1173.6 980.24 1167.17 981.019 1161.58 978.637L1133.64 966.723C1128.06 964.34 1124.17 959.158 1123.44 953.128L1119.79 922.978C1119.06 916.949 1121.6 910.988 1126.46 907.341L1150.74 889.105Z" fill="#F6E2A1"/>
<path d="M1181.27 1001.49L1209.21 1013.4C1214.46 1015.64 1218.13 1020.52 1218.81 1026.2L1222.46 1056.35C1223.15 1062.02 1220.76 1067.63 1216.19 1071.06L1191.9 1089.3C1187.33 1092.73 1181.27 1093.46 1176.02 1091.22L1148.08 1079.31C1142.82 1077.07 1139.16 1072.19 1138.47 1066.51L1134.82 1036.36C1134.14 1030.69 1136.53 1025.08 1141.1 1021.65L1165.39 1003.41C1169.96 999.978 1176.01 999.245 1181.27 1001.49Z" stroke="#F6E2A1" stroke-width="2"/>
<rect x="1236.24" y="991.292" width="94" height="94" rx="17" transform="rotate(-6.90261 1236.24 991.292)" fill="#16615D"/>
<rect x="1223.66" y="878.991" width="92" height="92" rx="16" transform="rotate(-6.90261 1223.66 878.991)" stroke="#16615D" stroke-width="2"/>
<rect x="1363.91" y="1090.67" width="94" height="94" rx="30" transform="rotate(-6.90261 1363.91 1090.67)" fill="#FF335F"/>
<rect x="1351.67" y="978.699" width="92" height="92" rx="29" transform="rotate(-6.90261 1351.67 978.699)" stroke="#FF335F" stroke-width="2"/>
<rect x="1337.63" y="865.194" width="92" height="92" rx="29" transform="rotate(-6.90261 1337.63 865.194)" stroke="#FF335F" stroke-width="2"/>
</g>
<g clip-path="url(#clip40_102_1202)">
<path d="M484.605 969.747C489.462 966.101 495.895 965.322 501.482 967.704L529.417 979.618C535.004 982.001 538.895 987.183 539.625 993.213L543.275 1023.36C544.005 1029.39 541.463 1035.35 536.606 1039L512.32 1057.24C507.463 1060.88 501.03 1061.66 495.443 1059.28L467.508 1047.36C461.921 1044.98 458.03 1039.8 457.3 1033.77L453.65 1003.62C452.92 997.591 455.462 991.63 460.319 987.983L484.605 969.747Z" fill="#F6E2A1"/>
<path d="M515.133 1082.13L543.069 1094.04C548.327 1096.29 551.989 1101.16 552.676 1106.84L556.326 1136.99C557.013 1142.66 554.62 1148.27 550.049 1151.71L525.764 1169.94C521.193 1173.37 515.138 1174.11 509.88 1171.86L481.944 1159.95C476.686 1157.71 473.024 1152.83 472.337 1147.16L468.687 1117.01C468 1111.33 470.392 1105.72 474.963 1102.29L499.249 1084.05C503.82 1080.62 509.875 1079.89 515.133 1082.13Z" stroke="#F6E2A1" stroke-width="2"/>
<rect x="570.108" y="1071.93" width="94" height="94" rx="17" transform="rotate(-6.90261 570.108 1071.93)" fill="#16615D"/>
<rect x="557.52" y="959.633" width="92" height="92" rx="16" transform="rotate(-6.90261 557.52 959.633)" stroke="#16615D" stroke-width="2"/>
<rect x="685.532" y="1059.34" width="92" height="92" rx="29" transform="rotate(-6.90261 685.532 1059.34)" stroke="#FF335F" stroke-width="2"/>
<rect x="671.489" y="945.836" width="92" height="92" rx="29" transform="rotate(-6.90261 671.489 945.836)" stroke="#FF335F" stroke-width="2"/>
</g>
<g clip-path="url(#clip41_102_1202)">
<path d="M1816.37 812.554C1821.22 808.907 1827.66 808.129 1833.24 810.511L1861.18 822.425C1866.76 824.808 1870.66 829.99 1871.39 836.019L1875.04 866.169C1875.77 872.199 1873.22 878.16 1868.37 881.807L1844.08 900.043C1839.22 903.689 1832.79 904.468 1827.2 902.086L1799.27 890.172C1793.68 887.789 1789.79 882.607 1789.06 876.577L1785.41 846.427C1784.68 840.398 1787.22 834.437 1792.08 830.79L1816.37 812.554Z" fill="#F6E2A1"/>
<path d="M1846.89 924.936L1874.83 936.85C1880.09 939.092 1883.75 943.97 1884.44 949.645L1888.09 979.795C1888.77 985.469 1886.38 991.08 1881.81 994.512L1857.52 1012.75C1852.95 1016.18 1846.9 1016.91 1841.64 1014.67L1813.7 1002.76C1808.45 1000.51 1804.78 995.637 1804.1 989.962L1800.45 959.812C1799.76 954.137 1802.15 948.527 1806.72 945.095L1831.01 926.859C1835.58 923.427 1841.64 922.694 1846.89 924.936Z" stroke="#F6E2A1" stroke-width="2"/>
<path d="M1860.59 1038.11L1888.53 1050.02C1893.79 1052.27 1897.45 1057.14 1898.14 1062.82L1901.79 1092.97C1902.47 1098.64 1900.08 1104.25 1895.51 1107.69L1871.23 1125.92C1866.65 1129.35 1860.6 1130.09 1855.34 1127.84L1827.41 1115.93C1822.15 1113.69 1818.49 1108.81 1817.8 1103.14L1814.15 1072.99C1813.46 1067.31 1815.85 1061.7 1820.43 1058.27L1844.71 1040.03C1849.28 1036.6 1855.34 1035.87 1860.59 1038.11Z" stroke="#F6E2A1" stroke-width="2"/>
<rect x="1901.87" y="914.741" width="94" height="94" rx="17" transform="rotate(-6.90261 1901.87 914.741)" fill="#16615D"/>
<rect x="1889.28" y="802.44" width="92" height="92" rx="16" transform="rotate(-6.90261 1889.28 802.44)" stroke="#16615D" stroke-width="2"/>
<rect x="1917.03" y="1029.12" width="92" height="92" rx="16" transform="rotate(-6.90261 1917.03 1029.12)" stroke="#16615D" stroke-width="2"/>
<rect x="2029.54" y="1014.12" width="94" height="94" rx="30" transform="rotate(-6.90261 2029.54 1014.12)" fill="#FF335F"/>
<rect x="2017.29" y="902.148" width="92" height="92" rx="29" transform="rotate(-6.90261 2017.29 902.148)" stroke="#FF335F" stroke-width="2"/>
<rect x="2003.25" y="788.643" width="92" height="92" rx="29" transform="rotate(-6.90261 2003.25 788.643)" stroke="#FF335F" stroke-width="2"/>
</g>
<g clip-path="url(#clip42_102_1202)">
<path d="M151.04 1010.13C155.897 1006.48 162.33 1005.7 167.917 1008.09L195.853 1020C201.439 1022.38 205.33 1027.56 206.06 1033.59L209.71 1063.74C210.44 1069.77 207.898 1075.73 203.041 1079.38L178.756 1097.62C173.899 1101.26 167.465 1102.04 161.879 1099.66L133.943 1087.75C128.357 1085.36 124.465 1080.18 123.735 1074.15L120.085 1044C119.356 1037.97 121.898 1032.01 126.754 1028.36L151.04 1010.13Z" fill="#F6E2A1"/>
<rect x="223.459" y="1000.07" width="92" height="92" rx="16" transform="rotate(-6.90261 223.459 1000.07)" stroke="#16615D" stroke-width="2"/>
<rect x="336.931" y="986.338" width="92" height="92" rx="29" transform="rotate(-6.90261 336.931 986.338)" stroke="#FF335F" stroke-width="2"/>
</g>
<g clip-path="url(#clip43_102_1202)">
<path d="M1483.31 848.844C1488.17 845.197 1494.6 844.419 1500.19 846.801L1528.13 858.715C1533.71 861.098 1537.6 866.28 1538.33 872.309L1541.98 902.459C1542.71 908.489 1540.17 914.45 1535.31 918.097L1511.03 936.333C1506.17 939.979 1499.74 940.758 1494.15 938.376L1466.22 926.462C1460.63 924.079 1456.74 918.897 1456.01 912.867L1452.36 882.717C1451.63 876.688 1454.17 870.727 1459.03 867.08L1483.31 848.844Z" fill="#F6E2A1"/>
<path d="M1513.84 961.226L1541.78 973.14C1547.04 975.382 1550.7 980.26 1551.38 985.935L1555.03 1016.08C1555.72 1021.76 1553.33 1027.37 1548.76 1030.8L1524.47 1049.04C1519.9 1052.47 1513.85 1053.2 1508.59 1050.96L1480.65 1039.05C1475.39 1036.8 1471.73 1031.93 1471.05 1026.25L1467.4 996.102C1466.71 990.427 1469.1 984.817 1473.67 981.385L1497.96 963.149C1502.53 959.717 1508.58 958.984 1513.84 961.226Z" stroke="#F6E2A1" stroke-width="2"/>
<path d="M1527.54 1074.4L1555.48 1086.31C1560.74 1088.56 1564.4 1093.43 1565.09 1099.11L1568.74 1129.26C1569.42 1134.93 1567.03 1140.54 1562.46 1143.98L1538.17 1162.21C1533.6 1165.64 1527.55 1166.38 1522.29 1164.13L1494.35 1152.22C1489.1 1149.98 1485.43 1145.1 1484.75 1139.43L1481.1 1109.28C1480.41 1103.6 1482.8 1097.99 1487.37 1094.56L1511.66 1076.32C1516.23 1072.89 1522.28 1072.16 1527.54 1074.4Z" stroke="#F6E2A1" stroke-width="2"/>
<rect x="1568.32" y="951.092" width="94" height="94" rx="17" transform="rotate(-6.90261 1568.32 951.092)" fill="#16615D"/>
<rect x="1555.73" y="838.79" width="92" height="92" rx="16" transform="rotate(-6.90261 1555.73 838.79)" stroke="#16615D" stroke-width="2"/>
<rect x="1583.48" y="1065.47" width="92" height="92" rx="16" transform="rotate(-6.90261 1583.48 1065.47)" stroke="#16615D" stroke-width="2"/>
<rect x="1695.49" y="1050.53" width="94" height="94" rx="30" transform="rotate(-6.90261 1695.49 1050.53)" fill="#FF335F"/>
<rect x="1683.25" y="938.558" width="92" height="92" rx="29" transform="rotate(-6.90261 1683.25 938.558)" stroke="#FF335F" stroke-width="2"/>
<rect x="1669.2" y="825.053" width="92" height="92" rx="29" transform="rotate(-6.90261 1669.2 825.053)" stroke="#FF335F" stroke-width="2"/>
</g>
<g clip-path="url(#clip44_102_1202)">
<path d="M817.177 929.486C822.033 925.84 828.467 925.061 834.054 927.443L861.989 939.357C867.576 941.74 871.467 946.922 872.197 952.952L875.847 983.101C876.577 989.131 874.035 995.092 869.178 998.739L844.892 1016.97C840.035 1020.62 833.602 1021.4 828.015 1019.02L800.08 1007.1C794.493 1004.72 790.602 999.539 789.872 993.51L786.222 963.36C785.492 957.33 788.034 951.369 792.891 947.722L817.177 929.486Z" fill="#F6E2A1"/>
<path d="M847.705 1041.87L875.641 1053.78C880.899 1056.02 884.561 1060.9 885.248 1066.58L888.898 1096.73C889.585 1102.4 887.192 1108.01 882.621 1111.44L858.336 1129.68C853.764 1133.11 847.71 1133.85 842.451 1131.6L814.516 1119.69C809.258 1117.45 805.596 1112.57 804.909 1106.89L801.259 1076.74C800.572 1071.07 802.964 1065.46 807.535 1062.03L831.821 1043.79C836.392 1040.36 842.447 1039.63 847.705 1041.87Z" stroke="#F6E2A1" stroke-width="2"/>
<rect x="902.183" y="1031.73" width="94" height="94" rx="17" transform="rotate(-6.90261 902.183 1031.73)" fill="#16615D"/>
<rect x="889.595" y="919.433" width="92" height="92" rx="16" transform="rotate(-6.90261 889.595 919.433)" stroke="#16615D" stroke-width="2"/>
<rect x="1017.11" y="1019.2" width="92" height="92" rx="29" transform="rotate(-6.90261 1017.11 1019.2)" stroke="#FF335F" stroke-width="2"/>
<rect x="1003.07" y="905.696" width="92" height="92" rx="29" transform="rotate(-6.90261 1003.07 905.696)" stroke="#FF335F" stroke-width="2"/>
</g>
<g clip-path="url(#clip45_102_1202)">
<rect x="5.35195" y="1026.48" width="92" height="92" rx="29" transform="rotate(-6.90261 5.35195 1026.48)" stroke="#FF335F" stroke-width="2"/>
</g>
<g clip-path="url(#clip46_102_1202)">
<path d="M1150.74 889.105C1155.6 885.458 1162.03 884.68 1167.62 887.062L1195.55 898.976C1201.14 901.359 1205.03 906.541 1205.76 912.57L1209.41 942.72C1210.14 948.75 1207.6 954.711 1202.74 958.358L1178.46 976.594C1173.6 980.24 1167.17 981.019 1161.58 978.637L1133.64 966.723C1128.06 964.34 1124.17 959.158 1123.44 953.128L1119.79 922.978C1119.06 916.949 1121.6 910.988 1126.46 907.341L1150.74 889.105Z" fill="#F6E2A1"/>
<path d="M1181.27 1001.49L1209.21 1013.4C1214.46 1015.64 1218.13 1020.52 1218.81 1026.2L1222.46 1056.35C1223.15 1062.02 1220.76 1067.63 1216.19 1071.06L1191.9 1089.3C1187.33 1092.73 1181.27 1093.46 1176.02 1091.22L1148.08 1079.31C1142.82 1077.07 1139.16 1072.19 1138.47 1066.51L1134.82 1036.36C1134.14 1030.69 1136.53 1025.08 1141.1 1021.65L1165.39 1003.41C1169.96 999.978 1176.01 999.245 1181.27 1001.49Z" stroke="#F6E2A1" stroke-width="2"/>
<rect x="1236.24" y="991.292" width="94" height="94" rx="17" transform="rotate(-6.90261 1236.24 991.292)" fill="#16615D"/>
<rect x="1223.66" y="878.991" width="92" height="92" rx="16" transform="rotate(-6.90261 1223.66 878.991)" stroke="#16615D" stroke-width="2"/>
<rect x="1363.91" y="1090.67" width="94" height="94" rx="30" transform="rotate(-6.90261 1363.91 1090.67)" fill="#FF335F"/>
<rect x="1351.67" y="978.699" width="92" height="92" rx="29" transform="rotate(-6.90261 1351.67 978.699)" stroke="#FF335F" stroke-width="2"/>
<rect x="1337.63" y="865.194" width="92" height="92" rx="29" transform="rotate(-6.90261 1337.63 865.194)" stroke="#FF335F" stroke-width="2"/>
</g>
<g clip-path="url(#clip47_102_1202)">
<path d="M484.605 969.747C489.462 966.101 495.895 965.322 501.482 967.704L529.417 979.618C535.004 982.001 538.895 987.183 539.625 993.213L543.275 1023.36C544.005 1029.39 541.463 1035.35 536.606 1039L512.32 1057.24C507.463 1060.88 501.03 1061.66 495.443 1059.28L467.508 1047.36C461.921 1044.98 458.03 1039.8 457.3 1033.77L453.65 1003.62C452.92 997.591 455.462 991.63 460.319 987.983L484.605 969.747Z" fill="#F6E2A1"/>
<path d="M515.133 1082.13L543.069 1094.04C548.327 1096.29 551.989 1101.16 552.676 1106.84L556.326 1136.99C557.013 1142.66 554.62 1148.27 550.049 1151.71L525.764 1169.94C521.193 1173.37 515.138 1174.11 509.88 1171.86L481.944 1159.95C476.686 1157.71 473.024 1152.83 472.337 1147.16L468.687 1117.01C468 1111.33 470.392 1105.72 474.963 1102.29L499.249 1084.05C503.82 1080.62 509.875 1079.89 515.133 1082.13Z" stroke="#F6E2A1" stroke-width="2"/>
<rect x="570.108" y="1071.93" width="94" height="94" rx="17" transform="rotate(-6.90261 570.108 1071.93)" fill="#16615D"/>
<rect x="557.52" y="959.633" width="92" height="92" rx="16" transform="rotate(-6.90261 557.52 959.633)" stroke="#16615D" stroke-width="2"/>
<rect x="685.532" y="1059.34" width="92" height="92" rx="29" transform="rotate(-6.90261 685.532 1059.34)" stroke="#FF335F" stroke-width="2"/>
<rect x="671.489" y="945.836" width="92" height="92" rx="29" transform="rotate(-6.90261 671.489 945.836)" stroke="#FF335F" stroke-width="2"/>
</g>
<g clip-path="url(#clip48_102_1202)">
<path d="M1483.31 848.844C1488.17 845.197 1494.6 844.419 1500.19 846.801L1528.13 858.715C1533.71 861.098 1537.6 866.28 1538.33 872.309L1541.98 902.459C1542.71 908.489 1540.17 914.45 1535.31 918.097L1511.03 936.333C1506.17 939.979 1499.74 940.758 1494.15 938.376L1466.22 926.462C1460.63 924.079 1456.74 918.897 1456.01 912.867L1452.36 882.717C1451.63 876.688 1454.17 870.727 1459.03 867.08L1483.31 848.844Z" fill="#F6E2A1"/>
<path d="M1513.84 961.226L1541.78 973.14C1547.04 975.382 1550.7 980.26 1551.38 985.935L1555.03 1016.08C1555.72 1021.76 1553.33 1027.37 1548.76 1030.8L1524.47 1049.04C1519.9 1052.47 1513.85 1053.2 1508.59 1050.96L1480.65 1039.05C1475.39 1036.8 1471.73 1031.93 1471.05 1026.25L1467.4 996.102C1466.71 990.427 1469.1 984.817 1473.67 981.385L1497.96 963.149C1502.53 959.717 1508.58 958.984 1513.84 961.226Z" stroke="#F6E2A1" stroke-width="2"/>
<path d="M1527.54 1074.4L1555.48 1086.31C1560.74 1088.56 1564.4 1093.43 1565.09 1099.11L1568.74 1129.26C1569.42 1134.93 1567.03 1140.54 1562.46 1143.98L1538.17 1162.21C1533.6 1165.64 1527.55 1166.38 1522.29 1164.13L1494.35 1152.22C1489.1 1149.98 1485.43 1145.1 1484.75 1139.43L1481.1 1109.28C1480.41 1103.6 1482.8 1097.99 1487.37 1094.56L1511.66 1076.32C1516.23 1072.89 1522.28 1072.16 1527.54 1074.4Z" stroke="#F6E2A1" stroke-width="2"/>
<rect x="1568.32" y="951.092" width="94" height="94" rx="17" transform="rotate(-6.90261 1568.32 951.092)" fill="#16615D"/>
<rect x="1555.73" y="838.79" width="92" height="92" rx="16" transform="rotate(-6.90261 1555.73 838.79)" stroke="#16615D" stroke-width="2"/>
<rect x="1583.48" y="1065.47" width="92" height="92" rx="16" transform="rotate(-6.90261 1583.48 1065.47)" stroke="#16615D" stroke-width="2"/>
<rect x="1695.49" y="1050.53" width="94" height="94" rx="30" transform="rotate(-6.90261 1695.49 1050.53)" fill="#FF335F"/>
<rect x="1683.25" y="938.558" width="92" height="92" rx="29" transform="rotate(-6.90261 1683.25 938.558)" stroke="#FF335F" stroke-width="2"/>
<rect x="1669.2" y="825.053" width="92" height="92" rx="29" transform="rotate(-6.90261 1669.2 825.053)" stroke="#FF335F" stroke-width="2"/>
</g>
<g clip-path="url(#clip49_102_1202)">
<path d="M817.177 929.486C822.033 925.84 828.467 925.061 834.054 927.443L861.989 939.357C867.576 941.74 871.467 946.922 872.197 952.952L875.847 983.101C876.577 989.131 874.035 995.092 869.178 998.739L844.892 1016.97C840.035 1020.62 833.602 1021.4 828.015 1019.02L800.08 1007.1C794.493 1004.72 790.602 999.539 789.872 993.51L786.222 963.36C785.492 957.33 788.034 951.369 792.891 947.722L817.177 929.486Z" fill="#F6E2A1"/>
<path d="M847.705 1041.87L875.641 1053.78C880.899 1056.02 884.561 1060.9 885.248 1066.58L888.898 1096.73C889.585 1102.4 887.192 1108.01 882.621 1111.44L858.336 1129.68C853.764 1133.11 847.71 1133.85 842.451 1131.6L814.516 1119.69C809.258 1117.45 805.596 1112.57 804.909 1106.89L801.259 1076.74C800.572 1071.07 802.964 1065.46 807.535 1062.03L831.821 1043.79C836.392 1040.36 842.447 1039.63 847.705 1041.87Z" stroke="#F6E2A1" stroke-width="2"/>
<rect x="902.183" y="1031.73" width="94" height="94" rx="17" transform="rotate(-6.90261 902.183 1031.73)" fill="#16615D"/>
<rect x="889.595" y="919.433" width="92" height="92" rx="16" transform="rotate(-6.90261 889.595 919.433)" stroke="#16615D" stroke-width="2"/>
<rect x="1017.11" y="1019.2" width="92" height="92" rx="29" transform="rotate(-6.90261 1017.11 1019.2)" stroke="#FF335F" stroke-width="2"/>
<rect x="1003.07" y="905.696" width="92" height="92" rx="29" transform="rotate(-6.90261 1003.07 905.696)" stroke="#FF335F" stroke-width="2"/>
</g>
</g>
<defs>
<clipPath id="clip0_102_1202">
<rect width="2048" height="1080" fill="white"/>
</clipPath>
<clipPath id="clip1_102_1202">
<rect width="315.505" height="323.11" fill="white" transform="translate(-343 31.1299) rotate(-6.90261)"/>
</clipPath>
<clipPath id="clip2_102_1202">
<rect width="315.505" height="323.11" fill="white" transform="translate(989.273 -130.154) rotate(-6.90261)"/>
</clipPath>
<clipPath id="clip3_102_1202">
<rect width="315.505" height="323.11" fill="white" transform="translate(323.136 -49.5123) rotate(-6.90261)"/>
</clipPath>
<clipPath id="clip4_102_1202">
<rect width="315.505" height="323.11" fill="white" transform="translate(1654.9 -206.705) rotate(-6.90261)"/>
</clipPath>
<clipPath id="clip5_102_1202">
<rect width="315.505" height="323.11" fill="white" transform="translate(-10.4282 -9.1311) rotate(-6.90261)"/>
</clipPath>
<clipPath id="clip6_102_1202">
<rect width="315.505" height="323.11" fill="white" transform="translate(1321.84 -170.415) rotate(-6.90261)"/>
</clipPath>
<clipPath id="clip7_102_1202">
<rect width="315.505" height="323.11" fill="white" transform="translate(655.708 -89.7733) rotate(-6.90261)"/>
</clipPath>
<clipPath id="clip8_102_1202">
<rect width="315.505" height="323.11" fill="white" transform="translate(-343 31.1299) rotate(-6.90261)"/>
</clipPath>
<clipPath id="clip9_102_1202">
<rect width="315.505" height="323.11" fill="white" transform="translate(989.273 -130.154) rotate(-6.90261)"/>
</clipPath>
<clipPath id="clip10_102_1202">
<rect width="315.505" height="323.11" fill="white" transform="translate(323.136 -49.5123) rotate(-6.90261)"/>
</clipPath>
<clipPath id="clip11_102_1202">
<rect width="315.505" height="323.11" fill="white" transform="translate(1321.84 -170.415) rotate(-6.90261)"/>
</clipPath>
<clipPath id="clip12_102_1202">
<rect width="315.505" height="323.11" fill="white" transform="translate(655.708 -89.7733) rotate(-6.90261)"/>
</clipPath>
<clipPath id="clip13_102_1202">
<rect width="315.505" height="323.11" fill="white" transform="translate(-298.799 371.283) rotate(-6.90261)"/>
</clipPath>
<clipPath id="clip14_102_1202">
<rect width="315.505" height="323.11" fill="white" transform="translate(-257.577 711.797) rotate(-6.90261)"/>
</clipPath>
<clipPath id="clip15_102_1202">
<rect width="315.505" height="323.11" fill="white" transform="translate(1033.47 209.999) rotate(-6.90261)"/>
</clipPath>
<clipPath id="clip16_102_1202">
<rect width="315.505" height="323.11" fill="white" transform="translate(1074.7 550.513) rotate(-6.90261)"/>
</clipPath>
<clipPath id="clip17_102_1202">
<rect width="315.505" height="323.11" fill="white" transform="translate(367.337 290.641) rotate(-6.90261)"/>
</clipPath>
<clipPath id="clip18_102_1202">
<rect width="315.505" height="323.11" fill="white" transform="translate(408.56 631.155) rotate(-6.90261)"/>
</clipPath>
<clipPath id="clip19_102_1202">
<rect width="315.505" height="323.11" fill="white" transform="translate(1699.1 133.448) rotate(-6.90261)"/>
</clipPath>
<clipPath id="clip20_102_1202">
<rect width="315.505" height="323.11" fill="white" transform="translate(1740.32 473.962) rotate(-6.90261)"/>
</clipPath>
<clipPath id="clip21_102_1202">
<rect width="315.505" height="323.11" fill="white" transform="translate(33.7726 331.022) rotate(-6.90261)"/>
</clipPath>
<clipPath id="clip22_102_1202">
<rect width="315.505" height="323.11" fill="white" transform="translate(74.995 671.536) rotate(-6.90261)"/>
</clipPath>
<clipPath id="clip23_102_1202">
<rect width="315.505" height="323.11" fill="white" transform="translate(1366.05 169.738) rotate(-6.90261)"/>
</clipPath>
<clipPath id="clip24_102_1202">
<rect width="315.505" height="323.11" fill="white" transform="translate(1407.27 510.252) rotate(-6.90261)"/>
</clipPath>
<clipPath id="clip25_102_1202">
<rect width="315.505" height="323.11" fill="white" transform="translate(699.909 250.38) rotate(-6.90261)"/>
</clipPath>
<clipPath id="clip26_102_1202">
<rect width="315.505" height="323.11" fill="white" transform="translate(741.132 590.894) rotate(-6.90261)"/>
</clipPath>
<clipPath id="clip27_102_1202">
<rect width="315.505" height="323.11" fill="white" transform="translate(-298.799 371.283) rotate(-6.90261)"/>
</clipPath>
<clipPath id="clip28_102_1202">
<rect width="315.505" height="323.11" fill="white" transform="translate(-257.577 711.797) rotate(-6.90261)"/>
</clipPath>
<clipPath id="clip29_102_1202">
<rect width="315.505" height="323.11" fill="white" transform="translate(1033.47 209.999) rotate(-6.90261)"/>
</clipPath>
<clipPath id="clip30_102_1202">
<rect width="315.505" height="323.11" fill="white" transform="translate(1074.7 550.513) rotate(-6.90261)"/>
</clipPath>
<clipPath id="clip31_102_1202">
<rect width="315.505" height="323.11" fill="white" transform="translate(367.337 290.641) rotate(-6.90261)"/>
</clipPath>
<clipPath id="clip32_102_1202">
<rect width="315.505" height="323.11" fill="white" transform="translate(408.56 631.155) rotate(-6.90261)"/>
</clipPath>
<clipPath id="clip33_102_1202">
<rect width="315.505" height="323.11" fill="white" transform="translate(1366.05 169.738) rotate(-6.90261)"/>
</clipPath>
<clipPath id="clip34_102_1202">
<rect width="315.505" height="323.11" fill="white" transform="translate(1407.27 510.252) rotate(-6.90261)"/>
</clipPath>
<clipPath id="clip35_102_1202">
<rect width="315.505" height="323.11" fill="white" transform="translate(699.909 250.38) rotate(-6.90261)"/>
</clipPath>
<clipPath id="clip36_102_1202">
<rect width="315.505" height="323.11" fill="white" transform="translate(741.132 590.894) rotate(-6.90261)"/>
</clipPath>
<clipPath id="clip37_102_1202">
<rect width="315.505" height="323.11" fill="white" transform="translate(1987.88 -256.082) rotate(-6.90261)"/>
</clipPath>
<clipPath id="clip38_102_1202">
<rect width="315.505" height="323.11" fill="white" transform="translate(-216.354 1052.31) rotate(-6.90261)"/>
</clipPath>
<clipPath id="clip39_102_1202">
<rect width="315.505" height="323.11" fill="white" transform="translate(1115.92 891.027) rotate(-6.90261)"/>
</clipPath>
<clipPath id="clip40_102_1202">
<rect width="315.505" height="323.11" fill="white" transform="translate(449.782 971.669) rotate(-6.90261)"/>
</clipPath>
<clipPath id="clip41_102_1202">
<rect width="315.505" height="323.11" fill="white" transform="translate(1781.54 814.476) rotate(-6.90261)"/>
</clipPath>
<clipPath id="clip42_102_1202">
<rect width="315.505" height="323.11" fill="white" transform="translate(116.217 1012.05) rotate(-6.90261)"/>
</clipPath>
<clipPath id="clip43_102_1202">
<rect width="315.505" height="323.11" fill="white" transform="translate(1448.49 850.766) rotate(-6.90261)"/>
</clipPath>
<clipPath id="clip44_102_1202">
<rect width="315.505" height="323.11" fill="white" transform="translate(782.354 931.408) rotate(-6.90261)"/>
</clipPath>
<clipPath id="clip45_102_1202">
<rect width="315.505" height="323.11" fill="white" transform="translate(-216.354 1052.31) rotate(-6.90261)"/>
</clipPath>
<clipPath id="clip46_102_1202">
<rect width="315.505" height="323.11" fill="white" transform="translate(1115.92 891.027) rotate(-6.90261)"/>
</clipPath>
<clipPath id="clip47_102_1202">
<rect width="315.505" height="323.11" fill="white" transform="translate(449.782 971.669) rotate(-6.90261)"/>
</clipPath>
<clipPath id="clip48_102_1202">
<rect width="315.505" height="323.11" fill="white" transform="translate(1448.49 850.766) rotate(-6.90261)"/>
</clipPath>
<clipPath id="clip49_102_1202">
<rect width="315.505" height="323.11" fill="white" transform="translate(782.354 931.408) rotate(-6.90261)"/>
</clipPath>
</defs>
</svg>
